# Genesis Protocol - 3D Gun Turret Model
# Units: Grid tiles

o turretHead
v 0.3800 0.0000 -0.1000
v 0.3291 0.1900 -0.1000
v 0.3031 0.1750 0.0200
v 0.3500 0.0000 0.0200
v 0.3291 0.1900 -0.1000
v 0.1900 0.3291 -0.1000
v 0.1750 0.3031 0.0200
v 0.3031 0.1750 0.0200
v 0.1900 0.3291 -0.1000
v 0.0000 0.3800 -0.1000
v 0.0000 0.3500 0.0200
v 0.1750 0.3031 0.0200
v 0.0000 0.3800 -0.1000
v -0.1900 0.3291 -0.1000
v -0.1750 0.3031 0.0200
v 0.0000 0.3500 0.0200
v -0.1900 0.3291 -0.1000
v -0.3291 0.1900 -0.1000
v -0.3031 0.1750 0.0200
v -0.1750 0.3031 0.0200
v -0.3291 0.1900 -0.1000
v -0.3800 0.0000 -0.1000
v -0.3500 0.0000 0.0200
v -0.3031 0.1750 0.0200
v -0.3800 0.0000 -0.1000
v -0.3291 -0.1900 -0.1000
v -0.3031 -0.1750 0.0200
v -0.3500 0.0000 0.0200
v -0.3291 -0.1900 -0.1000
v -0.1900 -0.3291 -0.1000
v -0.1750 -0.3031 0.0200
v -0.3031 -0.1750 0.0200
v -0.1900 -0.3291 -0.1000
v -0.0000 -0.3800 -0.1000
v -0.0000 -0.3500 0.0200
v -0.1750 -0.3031 0.0200
v -0.0000 -0.3800 -0.1000
v 0.1900 -0.3291 -0.1000
v 0.1750 -0.3031 0.0200
v -0.0000 -0.3500 0.0200
v 0.1900 -0.3291 -0.1000
v 0.3291 -0.1900 -0.1000
v 0.3031 -0.1750 0.0200
v 0.1750 -0.3031 0.0200
v 0.3291 -0.1900 -0.1000
v 0.3800 -0.0000 -0.1000
v 0.3500 -0.0000 0.0200
v 0.3031 -0.1750 0.0200
v 0.0000 0.0000 0.0200
v 0.3500 0.0000 0.0200
v 0.3031 0.1750 0.0200
v 0.1750 0.3031 0.0200
v 0.0000 0.3500 0.0200
v -0.1750 0.3031 0.0200
v -0.3031 0.1750 0.0200
v -0.3500 0.0000 0.0200
v -0.3031 -0.1750 0.0200
v -0.1750 -0.3031 0.0200
v -0.0000 -0.3500 0.0200
v 0.1750 -0.3031 0.0200
v 0.3031 -0.1750 0.0200
v 0.0000 0.0000 -0.1000
v 0.3800 0.0000 -0.1000
v 0.3291 0.1900 -0.1000
v 0.1900 0.3291 -0.1000
v 0.0000 0.3800 -0.1000
v -0.1900 0.3291 -0.1000
v -0.3291 0.1900 -0.1000
v -0.3800 0.0000 -0.1000
v -0.3291 -0.1900 -0.1000
v -0.1900 -0.3291 -0.1000
v -0.0000 -0.3800 -0.1000
v 0.1900 -0.3291 -0.1000
v 0.3291 -0.1900 -0.1000
v 0.3600 0.0000 -0.0400
v 0.2546 0.2546 -0.0400
v 0.2333 0.2333 0.0400
v 0.3300 0.0000 0.0400
v 0.2546 0.2546 -0.0400
v 0.0000 0.3600 -0.0400
v 0.0000 0.3300 0.0400
v 0.2333 0.2333 0.0400
v 0.0000 0.3600 -0.0400
v -0.2546 0.2546 -0.0400
v -0.2333 0.2333 0.0400
v 0.0000 0.3300 0.0400
v -0.2546 0.2546 -0.0400
v -0.3600 0.0000 -0.0400
v -0.3300 0.0000 0.0400
v -0.2333 0.2333 0.0400
v -0.3600 0.0000 -0.0400
v -0.2546 -0.2546 -0.0400
v -0.2333 -0.2333 0.0400
v -0.3300 0.0000 0.0400
v -0.2546 -0.2546 -0.0400
v -0.0000 -0.3600 -0.0400
v -0.0000 -0.3300 0.0400
v -0.2333 -0.2333 0.0400
v -0.0000 -0.3600 -0.0400
v 0.2546 -0.2546 -0.0400
v 0.2333 -0.2333 0.0400
v -0.0000 -0.3300 0.0400
v 0.2546 -0.2546 -0.0400
v 0.3600 -0.0000 -0.0400
v 0.3300 -0.0000 0.0400
v 0.2333 -0.2333 0.0400
v 0.0000 0.0000 0.0400
v 0.3300 0.0000 0.0400
v 0.2333 0.2333 0.0400
v 0.0000 0.3300 0.0400
v -0.2333 0.2333 0.0400
v -0.3300 0.0000 0.0400
v -0.2333 -0.2333 0.0400
v -0.0000 -0.3300 0.0400
v 0.2333 -0.2333 0.0400
v 0.0000 0.0000 -0.0400
v 0.3600 0.0000 -0.0400
v 0.2546 0.2546 -0.0400
v 0.0000 0.3600 -0.0400
v -0.2546 0.2546 -0.0400
v -0.3600 0.0000 -0.0400
v -0.2546 -0.2546 -0.0400
v -0.0000 -0.3600 -0.0400
v 0.2546 -0.2546 -0.0400
v -0.3800 -0.2600 0.0000
v 0.1500 -0.3200 0.0000
v 0.1500 -0.3200 0.3200
v -0.3800 -0.2600 0.3200
v 0.1500 -0.3200 0.0000
v 0.3800 -0.1600 0.0000
v 0.3800 -0.1600 0.3200
v 0.1500 -0.3200 0.3200
v 0.3800 -0.1600 0.0000
v 0.3800 0.1600 0.0000
v 0.3800 0.1600 0.3200
v 0.3800 -0.1600 0.3200
v 0.3800 0.1600 0.0000
v 0.1500 0.3200 0.0000
v 0.1500 0.3200 0.3200
v 0.3800 0.1600 0.3200
v 0.1500 0.3200 0.0000
v -0.3800 0.2600 0.0000
v -0.3800 0.2600 0.3200
v 0.1500 0.3200 0.3200
v -0.3800 0.2600 0.0000
v -0.4200 0.1600 0.0000
v -0.4200 0.1600 0.3200
v -0.3800 0.2600 0.3200
v -0.4200 0.1600 0.0000
v -0.4200 -0.1600 0.0000
v -0.4200 -0.1600 0.3200
v -0.4200 0.1600 0.3200
v -0.4200 -0.1600 0.0000
v -0.3800 -0.2600 0.0000
v -0.3800 -0.2600 0.3200
v -0.4200 -0.1600 0.3200
v -0.0675 -0.0000 0.3200
v -0.3800 -0.2600 0.3200
v 0.1500 -0.3200 0.3200
v 0.3800 -0.1600 0.3200
v 0.3800 0.1600 0.3200
v 0.1500 0.3200 0.3200
v -0.3800 0.2600 0.3200
v -0.4200 0.1600 0.3200
v -0.4200 -0.1600 0.3200
v -0.0675 -0.0000 0.0000
v -0.3800 -0.2600 0.0000
v 0.1500 -0.3200 0.0000
v 0.3800 -0.1600 0.0000
v 0.3800 0.1600 0.0000
v 0.1500 0.3200 0.0000
v -0.3800 0.2600 0.0000
v -0.4200 0.1600 0.0000
v -0.4200 -0.1600 0.0000
v -0.2600 -0.1800 0.4200
v 0.2200 -0.1800 0.4200
v 0.2200 0.1800 0.4200
v -0.2600 0.1800 0.4200
v -0.3200 0.2200 0.3000
v 0.2800 0.2200 0.3000
v 0.2800 -0.2200 0.3000
v -0.3200 -0.2200 0.3000
v 0.2800 -0.2200 0.3000
v 0.2800 0.2200 0.3000
v 0.2200 0.1800 0.4200
v 0.2200 -0.1800 0.4200
v -0.3200 -0.2200 0.3000
v -0.2600 -0.1800 0.4200
v -0.2600 0.1800 0.4200
v -0.3200 0.2200 0.3000
v -0.3200 0.2200 0.3000
v -0.2600 0.1800 0.4200
v 0.2200 0.1800 0.4200
v 0.2800 0.2200 0.3000
v -0.3200 -0.2200 0.3000
v 0.2800 -0.2200 0.3000
v 0.2200 -0.1800 0.4200
v -0.2600 -0.1800 0.4200
v 0.1500 0.1600 0.3400
v 0.3200 0.1600 0.3400
v 0.3200 0.1800 0.3400
v 0.1500 0.1800 0.3400
v 0.1200 0.2800 0.0600
v 0.3600 0.2800 0.0600
v 0.3600 0.2000 0.0600
v 0.1200 0.2000 0.0600
v 0.3600 0.2000 0.0600
v 0.3600 0.2800 0.0600
v 0.3200 0.1800 0.3400
v 0.3200 0.1600 0.3400
v 0.1200 0.2000 0.0600
v 0.1500 0.1600 0.3400
v 0.1500 0.1800 0.3400
v 0.1200 0.2800 0.0600
v 0.1200 0.2800 0.0600
v 0.1500 0.1800 0.3400
v 0.3200 0.1800 0.3400
v 0.3600 0.2800 0.0600
v 0.1200 0.2000 0.0600
v 0.3600 0.2000 0.0600
v 0.3200 0.1600 0.3400
v 0.1500 0.1600 0.3400
v 0.1500 -0.1800 0.3400
v 0.3200 -0.1800 0.3400
v 0.3200 -0.1600 0.3400
v 0.1500 -0.1600 0.3400
v 0.1200 -0.2000 0.0600
v 0.3600 -0.2000 0.0600
v 0.3600 -0.2800 0.0600
v 0.1200 -0.2800 0.0600
v 0.3600 -0.2800 0.0600
v 0.3600 -0.2000 0.0600
v 0.3200 -0.1600 0.3400
v 0.3200 -0.1800 0.3400
v 0.1200 -0.2800 0.0600
v 0.1500 -0.1800 0.3400
v 0.1500 -0.1600 0.3400
v 0.1200 -0.2000 0.0600
v 0.1200 -0.2000 0.0600
v 0.1500 -0.1600 0.3400
v 0.3200 -0.1600 0.3400
v 0.3600 -0.2000 0.0600
v 0.1200 -0.2800 0.0600
v 0.3600 -0.2800 0.0600
v 0.3200 -0.1800 0.3400
v 0.1500 -0.1800 0.3400
v -0.2600 0.2400 0.3200
v 0.1200 0.2400 0.3200
v 0.1200 0.3200 0.3200
v -0.2600 0.3200 0.3200
v -0.3000 0.3600 0.0600
v 0.1600 0.3600 0.0600
v 0.1600 0.2600 0.0600
v -0.3000 0.2600 0.0600
v 0.1600 0.2600 0.0600
v 0.1600 0.3600 0.0600
v 0.1200 0.3200 0.3200
v 0.1200 0.2400 0.3200
v -0.3000 0.2600 0.0600
v -0.2600 0.2400 0.3200
v -0.2600 0.3200 0.3200
v -0.3000 0.3600 0.0600
v -0.3000 0.3600 0.0600
v -0.2600 0.3200 0.3200
v 0.1200 0.3200 0.3200
v 0.1600 0.3600 0.0600
v -0.3000 0.2600 0.0600
v 0.1600 0.2600 0.0600
v 0.1200 0.2400 0.3200
v -0.2600 0.2400 0.3200
v -0.2600 -0.3200 0.3200
v 0.1200 -0.3200 0.3200
v 0.1200 -0.2400 0.3200
v -0.2600 -0.2400 0.3200
v -0.3000 -0.2600 0.0600
v 0.1600 -0.2600 0.0600
v 0.1600 -0.3600 0.0600
v -0.3000 -0.3600 0.0600
v 0.1600 -0.3600 0.0600
v 0.1600 -0.2600 0.0600
v 0.1200 -0.2400 0.3200
v 0.1200 -0.3200 0.3200
v -0.3000 -0.3600 0.0600
v -0.2600 -0.3200 0.3200
v -0.2600 -0.2400 0.3200
v -0.3000 -0.2600 0.0600
v -0.3000 -0.2600 0.0600
v -0.2600 -0.2400 0.3200
v 0.1200 -0.2400 0.3200
v 0.1600 -0.2600 0.0600
v -0.3000 -0.3600 0.0600
v 0.1600 -0.3600 0.0600
v 0.1200 -0.3200 0.3200
v -0.2600 -0.3200 0.3200
v -0.0800 0.3200 0.2200
v 0.0800 0.3200 0.2200
v 0.0800 0.3700 0.2200
v -0.0800 0.3700 0.2200
v -0.0800 0.3700 0.1600
v 0.0800 0.3700 0.1600
v 0.0800 0.3200 0.1600
v -0.0800 0.3200 0.1600
v 0.0800 0.3200 0.1600
v 0.0800 0.3700 0.1600
v 0.0800 0.3700 0.2200
v 0.0800 0.3200 0.2200
v -0.0800 0.3200 0.2200
v -0.0800 0.3700 0.2200
v -0.0800 0.3700 0.1600
v -0.0800 0.3200 0.1600
v -0.0800 0.3700 0.1600
v 0.0800 0.3700 0.1600
v 0.0800 0.3700 0.2200
v -0.0800 0.3700 0.2200
v -0.0800 0.3200 0.2200
v 0.0800 0.3200 0.2200
v 0.0800 0.3200 0.1600
v -0.0800 0.3200 0.1600
v -0.0800 -0.3700 0.2200
v 0.0800 -0.3700 0.2200
v 0.0800 -0.3200 0.2200
v -0.0800 -0.3200 0.2200
v -0.0800 -0.3200 0.1600
v 0.0800 -0.3200 0.1600
v 0.0800 -0.3700 0.1600
v -0.0800 -0.3700 0.1600
v 0.0800 -0.3700 0.1600
v 0.0800 -0.3200 0.1600
v 0.0800 -0.3200 0.2200
v 0.0800 -0.3700 0.2200
v -0.0800 -0.3700 0.2200
v -0.0800 -0.3200 0.2200
v -0.0800 -0.3200 0.1600
v -0.0800 -0.3700 0.1600
v -0.0800 -0.3200 0.1600
v 0.0800 -0.3200 0.1600
v 0.0800 -0.3200 0.2200
v -0.0800 -0.3200 0.2200
v -0.0800 -0.3700 0.2200
v 0.0800 -0.3700 0.2200
v 0.0800 -0.3700 0.1600
v -0.0800 -0.3700 0.1600
v 0.0100 0.1000 0.4000
v -0.0222 0.1778 0.4000
v -0.0434 0.1566 0.5000
v -0.0200 0.1000 0.5000
v -0.0222 0.1778 0.4000
v -0.1000 0.2100 0.4000
v -0.1000 0.1800 0.5000
v -0.0434 0.1566 0.5000
v -0.1000 0.2100 0.4000
v -0.1778 0.1778 0.4000
v -0.1566 0.1566 0.5000
v -0.1000 0.1800 0.5000
v -0.1778 0.1778 0.4000
v -0.2100 0.1000 0.4000
v -0.1800 0.1000 0.5000
v -0.1566 0.1566 0.5000
v -0.2100 0.1000 0.4000
v -0.1778 0.0222 0.4000
v -0.1566 0.0434 0.5000
v -0.1800 0.1000 0.5000
v -0.1778 0.0222 0.4000
v -0.1000 -0.0100 0.4000
v -0.1000 0.0200 0.5000
v -0.1566 0.0434 0.5000
v -0.1000 -0.0100 0.4000
v -0.0222 0.0222 0.4000
v -0.0434 0.0434 0.5000
v -0.1000 0.0200 0.5000
v -0.0222 0.0222 0.4000
v 0.0100 0.1000 0.4000
v -0.0200 0.1000 0.5000
v -0.0434 0.0434 0.5000
v -0.1000 0.1000 0.5000
v -0.0200 0.1000 0.5000
v -0.0434 0.1566 0.5000
v -0.1000 0.1800 0.5000
v -0.1566 0.1566 0.5000
v -0.1800 0.1000 0.5000
v -0.1566 0.0434 0.5000
v -0.1000 0.0200 0.5000
v -0.0434 0.0434 0.5000
v -0.1000 0.1000 0.4000
v 0.0100 0.1000 0.4000
v -0.0222 0.1778 0.4000
v -0.1000 0.2100 0.4000
v -0.1778 0.1778 0.4000
v -0.2100 0.1000 0.4000
v -0.1778 0.0222 0.4000
v -0.1000 -0.0100 0.4000
v -0.0222 0.0222 0.4000
v 0.0150 0.1000 0.4400
v -0.0187 0.1813 0.4400
v -0.0187 0.1813 0.4800
v 0.0150 0.1000 0.4800
v -0.0187 0.1813 0.4400
v -0.1000 0.2150 0.4400
v -0.1000 0.2150 0.4800
v -0.0187 0.1813 0.4800
v -0.1000 0.2150 0.4400
v -0.1813 0.1813 0.4400
v -0.1813 0.1813 0.4800
v -0.1000 0.2150 0.4800
v -0.1813 0.1813 0.4400
v -0.2150 0.1000 0.4400
v -0.2150 0.1000 0.4800
v -0.1813 0.1813 0.4800
v -0.2150 0.1000 0.4400
v -0.1813 0.0187 0.4400
v -0.1813 0.0187 0.4800
v -0.2150 0.1000 0.4800
v -0.1813 0.0187 0.4400
v -0.1000 -0.0150 0.4400
v -0.1000 -0.0150 0.4800
v -0.1813 0.0187 0.4800
v -0.1000 -0.0150 0.4400
v -0.0187 0.0187 0.4400
v -0.0187 0.0187 0.4800
v -0.1000 -0.0150 0.4800
v -0.0187 0.0187 0.4400
v 0.0150 0.1000 0.4400
v 0.0150 0.1000 0.4800
v -0.0187 0.0187 0.4800
v -0.1000 0.1000 0.4800
v 0.0150 0.1000 0.4800
v -0.0187 0.1813 0.4800
v -0.1000 0.2150 0.4800
v -0.1813 0.1813 0.4800
v -0.2150 0.1000 0.4800
v -0.1813 0.0187 0.4800
v -0.1000 -0.0150 0.4800
v -0.0187 0.0187 0.4800
v -0.1000 0.1000 0.4400
v 0.0150 0.1000 0.4400
v -0.0187 0.1813 0.4400
v -0.1000 0.2150 0.4400
v -0.1813 0.1813 0.4400
v -0.2150 0.1000 0.4400
v -0.1813 0.0187 0.4400
v -0.1000 -0.0150 0.4400
v -0.0187 0.0187 0.4400
v -0.0500 0.0600 0.4800
v 0.0200 0.0600 0.4800
v 0.0200 0.1400 0.4800
v -0.0500 0.1400 0.4800
v -0.0500 0.1400 0.4400
v 0.0200 0.1400 0.4400
v 0.0200 0.0600 0.4400
v -0.0500 0.0600 0.4400
v 0.0200 0.0600 0.4400
v 0.0200 0.1400 0.4400
v 0.0200 0.1400 0.4800
v 0.0200 0.0600 0.4800
v -0.0500 0.0600 0.4800
v -0.0500 0.1400 0.4800
v -0.0500 0.1400 0.4400
v -0.0500 0.0600 0.4400
v -0.0500 0.1400 0.4400
v 0.0200 0.1400 0.4400
v 0.0200 0.1400 0.4800
v -0.0500 0.1400 0.4800
v -0.0500 0.0600 0.4800
v 0.0200 0.0600 0.4800
v 0.0200 0.0600 0.4400
v -0.0500 0.0600 0.4400
v -0.4200 -0.1800 0.3600
v -0.3200 -0.1800 0.3600
v -0.3200 0.1800 0.3600
v -0.4200 0.1800 0.3600
v -0.4600 0.2000 0.0800
v -0.3400 0.2000 0.0800
v -0.3400 -0.2000 0.0800
v -0.4600 -0.2000 0.0800
v -0.3400 -0.2000 0.0800
v -0.3400 0.2000 0.0800
v -0.3200 0.1800 0.3600
v -0.3200 -0.1800 0.3600
v -0.4600 -0.2000 0.0800
v -0.4200 -0.1800 0.3600
v -0.4200 0.1800 0.3600
v -0.4600 0.2000 0.0800
v -0.4600 0.2000 0.0800
v -0.4200 0.1800 0.3600
v -0.3200 0.1800 0.3600
v -0.3400 0.2000 0.0800
v -0.4600 -0.2000 0.0800
v -0.3400 -0.2000 0.0800
v -0.3200 -0.1800 0.3600
v -0.4200 -0.1800 0.3600
v -0.4700 -0.1400 0.3000
v -0.4500 -0.1400 0.3000
v -0.4500 0.1400 0.3000
v -0.4700 0.1400 0.3000
v -0.4700 0.1400 0.1800
v -0.4500 0.1400 0.1800
v -0.4500 -0.1400 0.1800
v -0.4700 -0.1400 0.1800
v -0.4500 -0.1400 0.1800
v -0.4500 0.1400 0.1800
v -0.4500 0.1400 0.3000
v -0.4500 -0.1400 0.3000
v -0.4700 -0.1400 0.3000
v -0.4700 0.1400 0.3000
v -0.4700 0.1400 0.1800
v -0.4700 -0.1400 0.1800
v -0.4700 0.1400 0.1800
v -0.4500 0.1400 0.1800
v -0.4500 0.1400 0.3000
v -0.4700 0.1400 0.3000
v -0.4700 -0.1400 0.3000
v -0.4500 -0.1400 0.3000
v -0.4500 -0.1400 0.1800
v -0.4700 -0.1400 0.1800
v 0.3200 -0.1400 0.2800
v 0.4000 -0.1400 0.2800
v 0.4000 0.1400 0.2800
v 0.3200 0.1400 0.2800
v 0.3200 0.1400 0.1800
v 0.4000 0.1400 0.1800
v 0.4000 -0.1400 0.1800
v 0.3200 -0.1400 0.1800
v 0.4000 -0.1400 0.1800
v 0.4000 0.1400 0.1800
v 0.4000 0.1400 0.2800
v 0.4000 -0.1400 0.2800
v 0.3200 -0.1400 0.2800
v 0.3200 0.1400 0.2800
v 0.3200 0.1400 0.1800
v 0.3200 -0.1400 0.1800
v 0.3200 0.1400 0.1800
v 0.4000 0.1400 0.1800
v 0.4000 0.1400 0.2800
v 0.3200 0.1400 0.2800
v 0.3200 -0.1400 0.2800
v 0.4000 -0.1400 0.2800
v 0.4000 -0.1400 0.1800
v 0.3200 -0.1400 0.1800
v 0.1800 -0.1000 0.4400
v 0.2600 -0.1000 0.4400
v 0.2600 0.1000 0.4400
v 0.1800 0.1000 0.4400
v 0.1800 0.1000 0.3800
v 0.2600 0.1000 0.3800
v 0.2600 -0.1000 0.3800
v 0.1800 -0.1000 0.3800
v 0.2600 -0.1000 0.3800
v 0.2600 0.1000 0.3800
v 0.2600 0.1000 0.4400
v 0.2600 -0.1000 0.4400
v 0.1800 -0.1000 0.4400
v 0.1800 0.1000 0.4400
v 0.1800 0.1000 0.3800
v 0.1800 -0.1000 0.3800
v 0.1800 0.1000 0.3800
v 0.2600 0.1000 0.3800
v 0.2600 0.1000 0.4400
v 0.1800 0.1000 0.4400
v 0.1800 -0.1000 0.4400
v 0.2600 -0.1000 0.4400
v 0.2600 -0.1000 0.3800
v 0.1800 -0.1000 0.3800
v -0.2050 -0.1400 0.3800
v -0.2225 -0.1097 0.3800
v -0.2275 -0.1183 0.4600
v -0.2150 -0.1400 0.4600
v -0.2225 -0.1097 0.3800
v -0.2575 -0.1097 0.3800
v -0.2525 -0.1183 0.4600
v -0.2275 -0.1183 0.4600
v -0.2575 -0.1097 0.3800
v -0.2750 -0.1400 0.3800
v -0.2650 -0.1400 0.4600
v -0.2525 -0.1183 0.4600
v -0.2750 -0.1400 0.3800
v -0.2575 -0.1703 0.3800
v -0.2525 -0.1617 0.4600
v -0.2650 -0.1400 0.4600
v -0.2575 -0.1703 0.3800
v -0.2225 -0.1703 0.3800
v -0.2275 -0.1617 0.4600
v -0.2525 -0.1617 0.4600
v -0.2225 -0.1703 0.3800
v -0.2050 -0.1400 0.3800
v -0.2150 -0.1400 0.4600
v -0.2275 -0.1617 0.4600
v -0.2400 -0.1400 0.4600
v -0.2150 -0.1400 0.4600
v -0.2275 -0.1183 0.4600
v -0.2525 -0.1183 0.4600
v -0.2650 -0.1400 0.4600
v -0.2525 -0.1617 0.4600
v -0.2275 -0.1617 0.4600
v -0.2400 -0.1400 0.3800
v -0.2050 -0.1400 0.3800
v -0.2225 -0.1097 0.3800
v -0.2575 -0.1097 0.3800
v -0.2750 -0.1400 0.3800
v -0.2575 -0.1703 0.3800
v -0.2225 -0.1703 0.3800
v -0.2220 -0.1400 0.4600
v -0.2400 -0.1220 0.4600
v -0.2400 -0.1300 0.8800
v -0.2300 -0.1400 0.8800
v -0.2400 -0.1220 0.4600
v -0.2580 -0.1400 0.4600
v -0.2500 -0.1400 0.8800
v -0.2400 -0.1300 0.8800
v -0.2580 -0.1400 0.4600
v -0.2400 -0.1580 0.4600
v -0.2400 -0.1500 0.8800
v -0.2500 -0.1400 0.8800
v -0.2400 -0.1580 0.4600
v -0.2220 -0.1400 0.4600
v -0.2300 -0.1400 0.8800
v -0.2400 -0.1500 0.8800
v -0.2400 -0.1400 0.8800
v -0.2300 -0.1400 0.8800
v -0.2400 -0.1300 0.8800
v -0.2500 -0.1400 0.8800
v -0.2400 -0.1500 0.8800
v -0.2400 -0.1400 0.4600
v -0.2220 -0.1400 0.4600
v -0.2400 -0.1220 0.4600
v -0.2580 -0.1400 0.4600
v -0.2400 -0.1580 0.4600
v -0.2550 -0.1550 0.9400
v -0.2250 -0.1550 0.9400
v -0.2250 -0.1250 0.9400
v -0.2550 -0.1250 0.9400
v -0.2550 -0.1250 0.8800
v -0.2250 -0.1250 0.8800
v -0.2250 -0.1550 0.8800
v -0.2550 -0.1550 0.8800
v -0.2250 -0.1550 0.8800
v -0.2250 -0.1250 0.8800
v -0.2250 -0.1250 0.9400
v -0.2250 -0.1550 0.9400
v -0.2550 -0.1550 0.9400
v -0.2550 -0.1250 0.9400
v -0.2550 -0.1250 0.8800
v -0.2550 -0.1550 0.8800
v -0.2550 -0.1250 0.8800
v -0.2250 -0.1250 0.8800
v -0.2250 -0.1250 0.9400
v -0.2550 -0.1250 0.9400
v -0.2550 -0.1550 0.9400
v -0.2250 -0.1550 0.9400
v -0.2250 -0.1550 0.8800
v -0.2550 -0.1550 0.8800
vn 0.9371 0.2511 0.2425
vn 0.9371 0.2511 0.2425
vn 0.9371 0.2511 0.2425
vn 0.9371 0.2511 0.2425
vn 0.6860 0.6860 0.2425
vn 0.6860 0.6860 0.2425
vn 0.6860 0.6860 0.2425
vn 0.6860 0.6860 0.2425
vn 0.2511 0.9371 0.2425
vn 0.2511 0.9371 0.2425
vn 0.2511 0.9371 0.2425
vn 0.2511 0.9371 0.2425
vn -0.2511 0.9371 0.2425
vn -0.2511 0.9371 0.2425
vn -0.2511 0.9371 0.2425
vn -0.2511 0.9371 0.2425
vn -0.6860 0.6860 0.2425
vn -0.6860 0.6860 0.2425
vn -0.6860 0.6860 0.2425
vn -0.6860 0.6860 0.2425
vn -0.9371 0.2511 0.2425
vn -0.9371 0.2511 0.2425
vn -0.9371 0.2511 0.2425
vn -0.9371 0.2511 0.2425
vn -0.9371 -0.2511 0.2425
vn -0.9371 -0.2511 0.2425
vn -0.9371 -0.2511 0.2425
vn -0.9371 -0.2511 0.2425
vn -0.6860 -0.6860 0.2425
vn -0.6860 -0.6860 0.2425
vn -0.6860 -0.6860 0.2425
vn -0.6860 -0.6860 0.2425
vn -0.2511 -0.9371 0.2425
vn -0.2511 -0.9371 0.2425
vn -0.2511 -0.9371 0.2425
vn -0.2511 -0.9371 0.2425
vn 0.2511 -0.9371 0.2425
vn 0.2511 -0.9371 0.2425
vn 0.2511 -0.9371 0.2425
vn 0.2511 -0.9371 0.2425
vn 0.6860 -0.6860 0.2425
vn 0.6860 -0.6860 0.2425
vn 0.6860 -0.6860 0.2425
vn 0.6860 -0.6860 0.2425
vn 0.9371 -0.2511 0.2425
vn 0.9371 -0.2511 0.2425
vn 0.9371 -0.2511 0.2425
vn 0.9371 -0.2511 0.2425
vn 0.0000 0.0000 1.0000
vn 0.0000 0.0000 1.0000
vn 0.0000 0.0000 1.0000
vn 0.0000 0.0000 1.0000
vn 0.0000 0.0000 1.0000
vn 0.0000 0.0000 1.0000
vn 0.0000 0.0000 1.0000
vn 0.0000 0.0000 1.0000
vn 0.0000 0.0000 1.0000
vn 0.0000 0.0000 1.0000
vn 0.0000 0.0000 1.0000
vn 0.0000 0.0000 1.0000
vn 0.0000 0.0000 1.0000
vn 0.0000 0.0000 -1.0000
vn 0.0000 0.0000 -1.0000
vn 0.0000 0.0000 -1.0000
vn 0.0000 0.0000 -1.0000
vn 0.0000 0.0000 -1.0000
vn 0.0000 0.0000 -1.0000
vn 0.0000 0.0000 -1.0000
vn 0.0000 0.0000 -1.0000
vn 0.0000 0.0000 -1.0000
vn 0.0000 0.0000 -1.0000
vn 0.0000 0.0000 -1.0000
vn 0.0000 0.0000 -1.0000
vn 0.0000 0.0000 -1.0000
vn 0.8651 0.3583 0.3511
vn 0.8651 0.3583 0.3511
vn 0.8651 0.3583 0.3511
vn 0.8651 0.3583 0.3511
vn 0.3583 0.8651 0.3511
vn 0.3583 0.8651 0.3511
vn 0.3583 0.8651 0.3511
vn 0.3583 0.8651 0.3511
vn -0.3583 0.8651 0.3511
vn -0.3583 0.8651 0.3511
vn -0.3583 0.8651 0.3511
vn -0.3583 0.8651 0.3511
vn -0.8651 0.3583 0.3511
vn -0.8651 0.3583 0.3511
vn -0.8651 0.3583 0.3511
vn -0.8651 0.3583 0.3511
vn -0.8651 -0.3583 0.3511
vn -0.8651 -0.3583 0.3511
vn -0.8651 -0.3583 0.3511
vn -0.8651 -0.3583 0.3511
vn -0.3583 -0.8651 0.3511
vn -0.3583 -0.8651 0.3511
vn -0.3583 -0.8651 0.3511
vn -0.3583 -0.8651 0.3511
vn 0.3583 -0.8651 0.3511
vn 0.3583 -0.8651 0.3511
vn 0.3583 -0.8651 0.3511
vn 0.3583 -0.8651 0.3511
vn 0.8651 -0.3583 0.3511
vn 0.8651 -0.3583 0.3511
vn 0.8651 -0.3583 0.3511
vn 0.8651 -0.3583 0.3511
vn 0.0000 0.0000 1.0000
vn 0.0000 0.0000 1.0000
vn 0.0000 0.0000 1.0000
vn 0.0000 0.0000 1.0000
vn 0.0000 0.0000 1.0000
vn 0.0000 0.0000 1.0000
vn 0.0000 0.0000 1.0000
vn 0.0000 0.0000 1.0000
vn 0.0000 0.0000 1.0000
vn 0.0000 0.0000 -1.0000
vn 0.0000 0.0000 -1.0000
vn 0.0000 0.0000 -1.0000
vn 0.0000 0.0000 -1.0000
vn 0.0000 0.0000 -1.0000
vn 0.0000 0.0000 -1.0000
vn 0.0000 0.0000 -1.0000
vn 0.0000 0.0000 -1.0000
vn 0.0000 0.0000 -1.0000
vn -0.1125 -0.9937 0.0000
vn -0.1125 -0.9937 0.0000
vn -0.1125 -0.9937 0.0000
vn -0.1125 -0.9937 0.0000
vn 0.5711 -0.8209 0.0000
vn 0.5711 -0.8209 0.0000
vn 0.5711 -0.8209 0.0000
vn 0.5711 -0.8209 0.0000
vn 1.0000 0.0000 0.0000
vn 1.0000 0.0000 0.0000
vn 1.0000 0.0000 0.0000
vn 1.0000 0.0000 0.0000
vn 0.5711 0.8209 0.0000
vn 0.5711 0.8209 0.0000
vn 0.5711 0.8209 0.0000
vn 0.5711 0.8209 0.0000
vn -0.1125 0.9937 0.0000
vn -0.1125 0.9937 0.0000
vn -0.1125 0.9937 0.0000
vn -0.1125 0.9937 0.0000
vn -0.9285 0.3714 0.0000
vn -0.9285 0.3714 0.0000
vn -0.9285 0.3714 0.0000
vn -0.9285 0.3714 0.0000
vn -1.0000 0.0000 0.0000
vn -1.0000 0.0000 0.0000
vn -1.0000 0.0000 0.0000
vn -1.0000 0.0000 0.0000
vn -0.9285 -0.3714 0.0000
vn -0.9285 -0.3714 0.0000
vn -0.9285 -0.3714 0.0000
vn -0.9285 -0.3714 0.0000
vn 0.0000 0.0000 1.0000
vn 0.0000 0.0000 1.0000
vn 0.0000 0.0000 1.0000
vn 0.0000 0.0000 1.0000
vn 0.0000 0.0000 1.0000
vn 0.0000 0.0000 1.0000
vn 0.0000 0.0000 1.0000
vn 0.0000 0.0000 1.0000
vn 0.0000 0.0000 1.0000
vn 0.0000 0.0000 -1.0000
vn 0.0000 0.0000 -1.0000
vn 0.0000 0.0000 -1.0000
vn 0.0000 0.0000 -1.0000
vn 0.0000 0.0000 -1.0000
vn 0.0000 0.0000 -1.0000
vn 0.0000 0.0000 -1.0000
vn 0.0000 0.0000 -1.0000
vn 0.0000 0.0000 -1.0000
vn 0.0000 0.0000 1.0000
vn 0.0000 0.0000 1.0000
vn 0.0000 0.0000 1.0000
vn 0.0000 0.0000 1.0000
vn 0.0000 0.0000 -1.0000
vn 0.0000 0.0000 -1.0000
vn 0.0000 0.0000 -1.0000
vn 0.0000 0.0000 -1.0000
vn 0.8944 0.0000 0.4472
vn 0.8944 0.0000 0.4472
vn 0.8944 0.0000 0.4472
vn 0.8944 0.0000 0.4472
vn -0.8944 0.0000 0.4472
vn -0.8944 0.0000 0.4472
vn -0.8944 0.0000 0.4472
vn -0.8944 0.0000 0.4472
vn 0.0000 0.9487 0.3162
vn 0.0000 0.9487 0.3162
vn 0.0000 0.9487 0.3162
vn 0.0000 0.9487 0.3162
vn 0.0000 -0.9487 0.3162
vn 0.0000 -0.9487 0.3162
vn 0.0000 -0.9487 0.3162
vn 0.0000 -0.9487 0.3162
vn 0.0000 0.0000 1.0000
vn 0.0000 0.0000 1.0000
vn 0.0000 0.0000 1.0000
vn 0.0000 0.0000 1.0000
vn 0.0000 0.0000 -1.0000
vn 0.0000 0.0000 -1.0000
vn 0.0000 0.0000 -1.0000
vn 0.0000 0.0000 -1.0000
vn 0.9899 0.0000 0.1414
vn 0.9899 0.0000 0.1414
vn 0.9899 0.0000 0.1414
vn 0.9899 0.0000 0.1414
vn -0.9943 0.0000 0.1065
vn -0.9943 0.0000 0.1065
vn -0.9943 0.0000 0.1065
vn -0.9943 0.0000 0.1065
vn 0.0000 0.9417 0.3363
vn 0.0000 0.9417 0.3363
vn 0.0000 0.9417 0.3363
vn 0.0000 0.9417 0.3363
vn 0.0000 -0.9899 -0.1414
vn 0.0000 -0.9899 -0.1414
vn 0.0000 -0.9899 -0.1414
vn 0.0000 -0.9899 -0.1414
vn 0.0000 0.0000 1.0000
vn 0.0000 0.0000 1.0000
vn 0.0000 0.0000 1.0000
vn 0.0000 0.0000 1.0000
vn 0.0000 0.0000 -1.0000
vn 0.0000 0.0000 -1.0000
vn 0.0000 0.0000 -1.0000
vn 0.0000 0.0000 -1.0000
vn 0.9899 0.0000 0.1414
vn 0.9899 0.0000 0.1414
vn 0.9899 0.0000 0.1414
vn 0.9899 0.0000 0.1414
vn -0.9943 0.0000 0.1065
vn -0.9943 0.0000 0.1065
vn -0.9943 0.0000 0.1065
vn -0.9943 0.0000 0.1065
vn 0.0000 0.9899 -0.1414
vn 0.0000 0.9899 -0.1414
vn 0.0000 0.9899 -0.1414
vn 0.0000 0.9899 -0.1414
vn 0.0000 -0.9417 0.3363
vn 0.0000 -0.9417 0.3363
vn 0.0000 -0.9417 0.3363
vn 0.0000 -0.9417 0.3363
vn 0.0000 0.0000 1.0000
vn 0.0000 0.0000 1.0000
vn 0.0000 0.0000 1.0000
vn 0.0000 0.0000 1.0000
vn 0.0000 0.0000 -1.0000
vn 0.0000 0.0000 -1.0000
vn 0.0000 0.0000 -1.0000
vn 0.0000 0.0000 -1.0000
vn 0.9884 0.0000 0.1521
vn 0.9884 0.0000 0.1521
vn 0.9884 0.0000 0.1521
vn 0.9884 0.0000 0.1521
vn -0.9884 0.0000 0.1521
vn -0.9884 0.0000 0.1521
vn -0.9884 0.0000 0.1521
vn -0.9884 0.0000 0.1521
vn 0.0000 0.9884 0.1521
vn 0.0000 0.9884 0.1521
vn 0.0000 0.9884 0.1521
vn 0.0000 0.9884 0.1521
vn 0.0000 -0.9971 -0.0767
vn 0.0000 -0.9971 -0.0767
vn 0.0000 -0.9971 -0.0767
vn 0.0000 -0.9971 -0.0767
vn 0.0000 0.0000 1.0000
vn 0.0000 0.0000 1.0000
vn 0.0000 0.0000 1.0000
vn 0.0000 0.0000 1.0000
vn 0.0000 0.0000 -1.0000
vn 0.0000 0.0000 -1.0000
vn 0.0000 0.0000 -1.0000
vn 0.0000 0.0000 -1.0000
vn 0.9884 0.0000 0.1521
vn 0.9884 0.0000 0.1521
vn 0.9884 0.0000 0.1521
vn 0.9884 0.0000 0.1521
vn -0.9884 0.0000 0.1521
vn -0.9884 0.0000 0.1521
vn -0.9884 0.0000 0.1521
vn -0.9884 0.0000 0.1521
vn 0.0000 0.9971 -0.0767
vn 0.0000 0.9971 -0.0767
vn 0.0000 0.9971 -0.0767
vn 0.0000 0.9971 -0.0767
vn 0.0000 -0.9884 0.1521
vn 0.0000 -0.9884 0.1521
vn 0.0000 -0.9884 0.1521
vn 0.0000 -0.9884 0.1521
vn 0.0000 0.0000 1.0000
vn 0.0000 0.0000 1.0000
vn 0.0000 0.0000 1.0000
vn 0.0000 0.0000 1.0000
vn 0.0000 0.0000 -1.0000
vn 0.0000 0.0000 -1.0000
vn 0.0000 0.0000 -1.0000
vn 0.0000 0.0000 -1.0000
vn 1.0000 0.0000 0.0000
vn 1.0000 0.0000 0.0000
vn 1.0000 0.0000 0.0000
vn 1.0000 0.0000 0.0000
vn -1.0000 0.0000 0.0000
vn -1.0000 0.0000 0.0000
vn -1.0000 0.0000 0.0000
vn -1.0000 0.0000 0.0000
vn 0.0000 1.0000 0.0000
vn 0.0000 1.0000 0.0000
vn 0.0000 1.0000 0.0000
vn 0.0000 1.0000 0.0000
vn 0.0000 -1.0000 0.0000
vn 0.0000 -1.0000 0.0000
vn 0.0000 -1.0000 0.0000
vn 0.0000 -1.0000 0.0000
vn 0.0000 0.0000 1.0000
vn 0.0000 0.0000 1.0000
vn 0.0000 0.0000 1.0000
vn 0.0000 0.0000 1.0000
vn 0.0000 0.0000 -1.0000
vn 0.0000 0.0000 -1.0000
vn 0.0000 0.0000 -1.0000
vn 0.0000 0.0000 -1.0000
vn 1.0000 0.0000 0.0000
vn 1.0000 0.0000 0.0000
vn 1.0000 0.0000 0.0000
vn 1.0000 0.0000 0.0000
vn -1.0000 0.0000 0.0000
vn -1.0000 0.0000 0.0000
vn -1.0000 0.0000 0.0000
vn -1.0000 0.0000 0.0000
vn 0.0000 1.0000 0.0000
vn 0.0000 1.0000 0.0000
vn 0.0000 1.0000 0.0000
vn 0.0000 1.0000 0.0000
vn 0.0000 -1.0000 0.0000
vn 0.0000 -1.0000 0.0000
vn 0.0000 -1.0000 0.0000
vn 0.0000 -1.0000 0.0000
vn 0.8849 0.3665 0.2873
vn 0.8849 0.3665 0.2873
vn 0.8849 0.3665 0.2873
vn 0.8849 0.3665 0.2873
vn 0.3665 0.8849 0.2873
vn 0.3665 0.8849 0.2873
vn 0.3665 0.8849 0.2873
vn 0.3665 0.8849 0.2873
vn -0.3665 0.8849 0.2873
vn -0.3665 0.8849 0.2873
vn -0.3665 0.8849 0.2873
vn -0.3665 0.8849 0.2873
vn -0.8849 0.3665 0.2873
vn -0.8849 0.3665 0.2873
vn -0.8849 0.3665 0.2873
vn -0.8849 0.3665 0.2873
vn -0.8849 -0.3665 0.2873
vn -0.8849 -0.3665 0.2873
vn -0.8849 -0.3665 0.2873
vn -0.8849 -0.3665 0.2873
vn -0.3665 -0.8849 0.2873
vn -0.3665 -0.8849 0.2873
vn -0.3665 -0.8849 0.2873
vn -0.3665 -0.8849 0.2873
vn 0.3665 -0.8849 0.2873
vn 0.3665 -0.8849 0.2873
vn 0.3665 -0.8849 0.2873
vn 0.3665 -0.8849 0.2873
vn 0.8849 -0.3665 0.2873
vn 0.8849 -0.3665 0.2873
vn 0.8849 -0.3665 0.2873
vn 0.8849 -0.3665 0.2873
vn 0.0000 0.0000 1.0000
vn 0.0000 0.0000 1.0000
vn 0.0000 0.0000 1.0000
vn 0.0000 0.0000 1.0000
vn 0.0000 0.0000 1.0000
vn 0.0000 0.0000 1.0000
vn 0.0000 0.0000 1.0000
vn 0.0000 0.0000 1.0000
vn 0.0000 0.0000 1.0000
vn 0.0000 0.0000 -1.0000
vn 0.0000 0.0000 -1.0000
vn 0.0000 0.0000 -1.0000
vn 0.0000 0.0000 -1.0000
vn 0.0000 0.0000 -1.0000
vn 0.0000 0.0000 -1.0000
vn 0.0000 0.0000 -1.0000
vn 0.0000 0.0000 -1.0000
vn 0.0000 0.0000 -1.0000
vn 0.9239 0.3827 0.0000
vn 0.9239 0.3827 0.0000
vn 0.9239 0.3827 0.0000
vn 0.9239 0.3827 0.0000
vn 0.3827 0.9239 0.0000
vn 0.3827 0.9239 0.0000
vn 0.3827 0.9239 0.0000
vn 0.3827 0.9239 0.0000
vn -0.3827 0.9239 0.0000
vn -0.3827 0.9239 0.0000
vn -0.3827 0.9239 0.0000
vn -0.3827 0.9239 0.0000
vn -0.9239 0.3827 0.0000
vn -0.9239 0.3827 0.0000
vn -0.9239 0.3827 0.0000
vn -0.9239 0.3827 0.0000
vn -0.9239 -0.3827 0.0000
vn -0.9239 -0.3827 0.0000
vn -0.9239 -0.3827 0.0000
vn -0.9239 -0.3827 0.0000
vn -0.3827 -0.9239 0.0000
vn -0.3827 -0.9239 0.0000
vn -0.3827 -0.9239 0.0000
vn -0.3827 -0.9239 0.0000
vn 0.3827 -0.9239 0.0000
vn 0.3827 -0.9239 0.0000
vn 0.3827 -0.9239 0.0000
vn 0.3827 -0.9239 0.0000
vn 0.9239 -0.3827 0.0000
vn 0.9239 -0.3827 0.0000
vn 0.9239 -0.3827 0.0000
vn 0.9239 -0.3827 0.0000
vn 0.0000 0.0000 1.0000
vn 0.0000 0.0000 1.0000
vn 0.0000 0.0000 1.0000
vn 0.0000 0.0000 1.0000
vn 0.0000 0.0000 1.0000
vn 0.0000 0.0000 1.0000
vn 0.0000 0.0000 1.0000
vn 0.0000 0.0000 1.0000
vn 0.0000 0.0000 1.0000
vn 0.0000 0.0000 -1.0000
vn 0.0000 0.0000 -1.0000
vn 0.0000 0.0000 -1.0000
vn 0.0000 0.0000 -1.0000
vn 0.0000 0.0000 -1.0000
vn 0.0000 0.0000 -1.0000
vn 0.0000 0.0000 -1.0000
vn 0.0000 0.0000 -1.0000
vn 0.0000 0.0000 -1.0000
vn 0.0000 0.0000 1.0000
vn 0.0000 0.0000 1.0000
vn 0.0000 0.0000 1.0000
vn 0.0000 0.0000 1.0000
vn 0.0000 0.0000 -1.0000
vn 0.0000 0.0000 -1.0000
vn 0.0000 0.0000 -1.0000
vn 0.0000 0.0000 -1.0000
vn 1.0000 0.0000 0.0000
vn 1.0000 0.0000 0.0000
vn 1.0000 0.0000 0.0000
vn 1.0000 0.0000 0.0000
vn -1.0000 0.0000 0.0000
vn -1.0000 0.0000 0.0000
vn -1.0000 0.0000 0.0000
vn -1.0000 0.0000 0.0000
vn 0.0000 1.0000 0.0000
vn 0.0000 1.0000 0.0000
vn 0.0000 1.0000 0.0000
vn 0.0000 1.0000 0.0000
vn 0.0000 -1.0000 0.0000
vn 0.0000 -1.0000 0.0000
vn 0.0000 -1.0000 0.0000
vn 0.0000 -1.0000 0.0000
vn 0.0000 0.0000 1.0000
vn 0.0000 0.0000 1.0000
vn 0.0000 0.0000 1.0000
vn 0.0000 0.0000 1.0000
vn 0.0000 0.0000 -1.0000
vn 0.0000 0.0000 -1.0000
vn 0.0000 0.0000 -1.0000
vn 0.0000 0.0000 -1.0000
vn 0.9975 0.0000 -0.0712
vn 0.9975 0.0000 -0.0712
vn 0.9975 0.0000 -0.0712
vn 0.9975 0.0000 -0.0712
vn -0.9899 0.0000 0.1414
vn -0.9899 0.0000 0.1414
vn -0.9899 0.0000 0.1414
vn -0.9899 0.0000 0.1414
vn 0.0000 0.9975 0.0712
vn 0.0000 0.9975 0.0712
vn 0.0000 0.9975 0.0712
vn 0.0000 0.9975 0.0712
vn 0.0000 -0.9975 0.0712
vn 0.0000 -0.9975 0.0712
vn 0.0000 -0.9975 0.0712
vn 0.0000 -0.9975 0.0712
vn 0.0000 0.0000 1.0000
vn 0.0000 0.0000 1.0000
vn 0.0000 0.0000 1.0000
vn 0.0000 0.0000 1.0000
vn 0.0000 0.0000 -1.0000
vn 0.0000 0.0000 -1.0000
vn 0.0000 0.0000 -1.0000
vn 0.0000 0.0000 -1.0000
vn 1.0000 0.0000 0.0000
vn 1.0000 0.0000 0.0000
vn 1.0000 0.0000 0.0000
vn 1.0000 0.0000 0.0000
vn -1.0000 0.0000 0.0000
vn -1.0000 0.0000 0.0000
vn -1.0000 0.0000 0.0000
vn -1.0000 0.0000 0.0000
vn 0.0000 1.0000 0.0000
vn 0.0000 1.0000 0.0000
vn 0.0000 1.0000 0.0000
vn 0.0000 1.0000 0.0000
vn 0.0000 -1.0000 0.0000
vn 0.0000 -1.0000 0.0000
vn 0.0000 -1.0000 0.0000
vn 0.0000 -1.0000 0.0000
vn 0.0000 0.0000 1.0000
vn 0.0000 0.0000 1.0000
vn 0.0000 0.0000 1.0000
vn 0.0000 0.0000 1.0000
vn 0.0000 0.0000 -1.0000
vn 0.0000 0.0000 -1.0000
vn 0.0000 0.0000 -1.0000
vn 0.0000 0.0000 -1.0000
vn 1.0000 0.0000 0.0000
vn 1.0000 0.0000 0.0000
vn 1.0000 0.0000 0.0000
vn 1.0000 0.0000 0.0000
vn -1.0000 0.0000 0.0000
vn -1.0000 0.0000 0.0000
vn -1.0000 0.0000 0.0000
vn -1.0000 0.0000 0.0000
vn 0.0000 1.0000 0.0000
vn 0.0000 1.0000 0.0000
vn 0.0000 1.0000 0.0000
vn 0.0000 1.0000 0.0000
vn 0.0000 -1.0000 0.0000
vn 0.0000 -1.0000 0.0000
vn 0.0000 -1.0000 0.0000
vn 0.0000 -1.0000 0.0000
vn 0.0000 0.0000 1.0000
vn 0.0000 0.0000 1.0000
vn 0.0000 0.0000 1.0000
vn 0.0000 0.0000 1.0000
vn 0.0000 0.0000 -1.0000
vn 0.0000 0.0000 -1.0000
vn 0.0000 0.0000 -1.0000
vn 0.0000 0.0000 -1.0000
vn 1.0000 0.0000 0.0000
vn 1.0000 0.0000 0.0000
vn 1.0000 0.0000 0.0000
vn 1.0000 0.0000 0.0000
vn -1.0000 0.0000 0.0000
vn -1.0000 0.0000 0.0000
vn -1.0000 0.0000 0.0000
vn -1.0000 0.0000 0.0000
vn 0.0000 1.0000 0.0000
vn 0.0000 1.0000 0.0000
vn 0.0000 1.0000 0.0000
vn 0.0000 1.0000 0.0000
vn 0.0000 -1.0000 0.0000
vn 0.0000 -1.0000 0.0000
vn 0.0000 -1.0000 0.0000
vn 0.0000 -1.0000 0.0000
vn 0.8593 0.4961 0.1240
vn 0.8593 0.4961 0.1240
vn 0.8593 0.4961 0.1240
vn 0.8593 0.4961 0.1240
vn 0.0000 0.9923 0.1240
vn 0.0000 0.9923 0.1240
vn 0.0000 0.9923 0.1240
vn 0.0000 0.9923 0.1240
vn -0.8593 0.4961 0.1240
vn -0.8593 0.4961 0.1240
vn -0.8593 0.4961 0.1240
vn -0.8593 0.4961 0.1240
vn -0.8593 -0.4961 0.1240
vn -0.8593 -0.4961 0.1240
vn -0.8593 -0.4961 0.1240
vn -0.8593 -0.4961 0.1240
vn -0.0000 -0.9923 0.1240
vn -0.0000 -0.9923 0.1240
vn -0.0000 -0.9923 0.1240
vn -0.0000 -0.9923 0.1240
vn 0.8593 -0.4961 0.1240
vn 0.8593 -0.4961 0.1240
vn 0.8593 -0.4961 0.1240
vn 0.8593 -0.4961 0.1240
vn 0.0000 0.0000 1.0000
vn 0.0000 0.0000 1.0000
vn 0.0000 0.0000 1.0000
vn 0.0000 0.0000 1.0000
vn 0.0000 0.0000 1.0000
vn 0.0000 0.0000 1.0000
vn 0.0000 0.0000 1.0000
vn 0.0000 0.0000 -1.0000
vn 0.0000 0.0000 -1.0000
vn 0.0000 0.0000 -1.0000
vn 0.0000 0.0000 -1.0000
vn 0.0000 0.0000 -1.0000
vn 0.0000 0.0000 -1.0000
vn 0.0000 0.0000 -1.0000
vn 0.7070 0.7070 0.0190
vn 0.7070 0.7070 0.0190
vn 0.7070 0.7070 0.0190
vn 0.7070 0.7070 0.0190
vn -0.7070 0.7070 0.0190
vn -0.7070 0.7070 0.0190
vn -0.7070 0.7070 0.0190
vn -0.7070 0.7070 0.0190
vn -0.7070 -0.7070 0.0190
vn -0.7070 -0.7070 0.0190
vn -0.7070 -0.7070 0.0190
vn -0.7070 -0.7070 0.0190
vn 0.7070 -0.7070 0.0190
vn 0.7070 -0.7070 0.0190
vn 0.7070 -0.7070 0.0190
vn 0.7070 -0.7070 0.0190
vn 0.0000 0.0000 1.0000
vn 0.0000 0.0000 1.0000
vn 0.0000 0.0000 1.0000
vn 0.0000 0.0000 1.0000
vn 0.0000 0.0000 1.0000
vn 0.0000 0.0000 -1.0000
vn 0.0000 0.0000 -1.0000
vn 0.0000 0.0000 -1.0000
vn 0.0000 0.0000 -1.0000
vn 0.0000 0.0000 -1.0000
vn 0.0000 0.0000 1.0000
vn 0.0000 0.0000 1.0000
vn 0.0000 0.0000 1.0000
vn 0.0000 0.0000 1.0000
vn 0.0000 0.0000 -1.0000
vn 0.0000 0.0000 -1.0000
vn 0.0000 0.0000 -1.0000
vn 0.0000 0.0000 -1.0000
vn 1.0000 0.0000 0.0000
vn 1.0000 0.0000 0.0000
vn 1.0000 0.0000 0.0000
vn 1.0000 0.0000 0.0000
vn -1.0000 0.0000 0.0000
vn -1.0000 0.0000 0.0000
vn -1.0000 0.0000 0.0000
vn -1.0000 0.0000 0.0000
vn 0.0000 1.0000 0.0000
vn 0.0000 1.0000 0.0000
vn 0.0000 1.0000 0.0000
vn 0.0000 1.0000 0.0000
vn 0.0000 -1.0000 0.0000
vn 0.0000 -1.0000 0.0000
vn 0.0000 -1.0000 0.0000
vn 0.0000 -1.0000 0.0000
usemtl dark
f 1//1 2//2 3//3
f 1//1 3//3 4//4
f 5//5 6//6 7//7
f 5//5 7//7 8//8
f 9//9 10//10 11//11
f 9//9 11//11 12//12
f 13//13 14//14 15//15
f 13//13 15//15 16//16
f 17//17 18//18 19//19
f 17//17 19//19 20//20
f 21//21 22//22 23//23
f 21//21 23//23 24//24
f 25//25 26//26 27//27
f 25//25 27//27 28//28
f 29//29 30//30 31//31
f 29//29 31//31 32//32
f 33//33 34//34 35//35
f 33//33 35//35 36//36
f 37//37 38//38 39//39
f 37//37 39//39 40//40
f 41//41 42//42 43//43
f 41//41 43//43 44//44
f 45//45 46//46 47//47
f 45//45 47//47 48//48
f 49//49 50//50 51//51
f 49//49 51//51 52//52
f 49//49 52//52 53//53
f 49//49 53//53 54//54
f 49//49 54//54 55//55
f 49//49 55//55 56//56
f 49//49 56//56 57//57
f 49//49 57//57 58//58
f 49//49 58//58 59//59
f 49//49 59//59 60//60
f 49//49 60//60 61//61
f 49//49 61//61 50//50
f 62//62 64//64 63//63
f 62//62 65//65 64//64
f 62//62 66//66 65//65
f 62//62 67//67 66//66
f 62//62 68//68 67//67
f 62//62 69//69 68//68
f 62//62 70//70 69//69
f 62//62 71//71 70//70
f 62//62 72//72 71//71
f 62//62 73//73 72//72
f 62//62 74//74 73//73
f 62//62 63//63 74//74
usemtl secondary
f 75//75 76//76 77//77
f 75//75 77//77 78//78
f 79//79 80//80 81//81
f 79//79 81//81 82//82
f 83//83 84//84 85//85
f 83//83 85//85 86//86
f 87//87 88//88 89//89
f 87//87 89//89 90//90
f 91//91 92//92 93//93
f 91//91 93//93 94//94
f 95//95 96//96 97//97
f 95//95 97//97 98//98
f 99//99 100//100 101//101
f 99//99 101//101 102//102
f 103//103 104//104 105//105
f 103//103 105//105 106//106
f 107//107 108//108 109//109
f 107//107 109//109 110//110
f 107//107 110//110 111//111
f 107//107 111//111 112//112
f 107//107 112//112 113//113
f 107//107 113//113 114//114
f 107//107 114//114 115//115
f 107//107 115//115 108//108
f 116//116 118//118 117//117
f 116//116 119//119 118//118
f 116//116 120//120 119//119
f 116//116 121//121 120//120
f 116//116 122//122 121//121
f 116//116 123//123 122//122
f 116//116 124//124 123//123
f 116//116 117//117 124//124
usemtl primary
f 125//125 126//126 127//127
f 125//125 127//127 128//128
f 129//129 130//130 131//131
f 129//129 131//131 132//132
f 133//133 134//134 135//135
f 133//133 135//135 136//136
f 137//137 138//138 139//139
f 137//137 139//139 140//140
f 141//141 142//142 143//143
f 141//141 143//143 144//144
f 145//145 146//146 147//147
f 145//145 147//147 148//148
f 149//149 150//150 151//151
f 149//149 151//151 152//152
f 153//153 154//154 155//155
f 153//153 155//155 156//156
f 157//157 158//158 159//159
f 157//157 159//159 160//160
f 157//157 160//160 161//161
f 157//157 161//161 162//162
f 157//157 162//162 163//163
f 157//157 163//163 164//164
f 157//157 164//164 165//165
f 157//157 165//165 158//158
f 166//166 168//168 167//167
f 166//166 169//169 168//168
f 166//166 170//170 169//169
f 166//166 171//171 170//170
f 166//166 172//172 171//171
f 166//166 173//173 172//172
f 166//166 174//174 173//173
f 166//166 167//167 174//174
f 175//175 176//176 177//177
f 175//175 177//177 178//178
f 179//179 180//180 181//181
f 179//179 181//181 182//182
f 183//183 184//184 185//185
f 183//183 185//185 186//186
f 187//187 188//188 189//189
f 187//187 189//189 190//190
f 191//191 192//192 193//193
f 191//191 193//193 194//194
f 195//195 196//196 197//197
f 195//195 197//197 198//198
usemtl secondary
f 199//199 200//200 201//201
f 199//199 201//201 202//202
f 203//203 204//204 205//205
f 203//203 205//205 206//206
f 207//207 208//208 209//209
f 207//207 209//209 210//210
f 211//211 212//212 213//213
f 211//211 213//213 214//214
f 215//215 216//216 217//217
f 215//215 217//217 218//218
f 219//219 220//220 221//221
f 219//219 221//221 222//222
f 223//223 224//224 225//225
f 223//223 225//225 226//226
f 227//227 228//228 229//229
f 227//227 229//229 230//230
f 231//231 232//232 233//233
f 231//231 233//233 234//234
f 235//235 236//236 237//237
f 235//235 237//237 238//238
f 239//239 240//240 241//241
f 239//239 241//241 242//242
f 243//243 244//244 245//245
f 243//243 245//245 246//246
f 247//247 248//248 249//249
f 247//247 249//249 250//250
f 251//251 252//252 253//253
f 251//251 253//253 254//254
f 255//255 256//256 257//257
f 255//255 257//257 258//258
f 259//259 260//260 261//261
f 259//259 261//261 262//262
f 263//263 264//264 265//265
f 263//263 265//265 266//266
f 267//267 268//268 269//269
f 267//267 269//269 270//270
f 271//271 272//272 273//273
f 271//271 273//273 274//274
f 275//275 276//276 277//277
f 275//275 277//277 278//278
f 279//279 280//280 281//281
f 279//279 281//281 282//282
f 283//283 284//284 285//285
f 283//283 285//285 286//286
f 287//287 288//288 289//289
f 287//287 289//289 290//290
f 291//291 292//292 293//293
f 291//291 293//293 294//294
usemtl accent
f 295//295 296//296 297//297
f 295//295 297//297 298//298
f 299//299 300//300 301//301
f 299//299 301//301 302//302
f 303//303 304//304 305//305
f 303//303 305//305 306//306
f 307//307 308//308 309//309
f 307//307 309//309 310//310
f 311//311 312//312 313//313
f 311//311 313//313 314//314
f 315//315 316//316 317//317
f 315//315 317//317 318//318
f 319//319 320//320 321//321
f 319//319 321//321 322//322
f 323//323 324//324 325//325
f 323//323 325//325 326//326
f 327//327 328//328 329//329
f 327//327 329//329 330//330
f 331//331 332//332 333//333
f 331//331 333//333 334//334
f 335//335 336//336 337//337
f 335//335 337//337 338//338
f 339//339 340//340 341//341
f 339//339 341//341 342//342
usemtl primary
f 343//343 344//344 345//345
f 343//343 345//345 346//346
f 347//347 348//348 349//349
f 347//347 349//349 350//350
f 351//351 352//352 353//353
f 351//351 353//353 354//354
f 355//355 356//356 357//357
f 355//355 357//357 358//358
f 359//359 360//360 361//361
f 359//359 361//361 362//362
f 363//363 364//364 365//365
f 363//363 365//365 366//366
f 367//367 368//368 369//369
f 367//367 369//369 370//370
f 371//371 372//372 373//373
f 371//371 373//373 374//374
f 375//375 376//376 377//377
f 375//375 377//377 378//378
f 375//375 378//378 379//379
f 375//375 379//379 380//380
f 375//375 380//380 381//381
f 375//375 381//381 382//382
f 375//375 382//382 383//383
f 375//375 383//383 376//376
f 384//384 386//386 385//385
f 384//384 387//387 386//386
f 384//384 388//388 387//387
f 384//384 389//389 388//388
f 384//384 390//390 389//389
f 384//384 391//391 390//390
f 384//384 392//392 391//391
f 384//384 385//385 392//392
usemtl dark
f 393//393 394//394 395//395
f 393//393 395//395 396//396
f 397//397 398//398 399//399
f 397//397 399//399 400//400
f 401//401 402//402 403//403
f 401//401 403//403 404//404
f 405//405 406//406 407//407
f 405//405 407//407 408//408
f 409//409 410//410 411//411
f 409//409 411//411 412//412
f 413//413 414//414 415//415
f 413//413 415//415 416//416
f 417//417 418//418 419//419
f 417//417 419//419 420//420
f 421//421 422//422 423//423
f 421//421 423//423 424//424
f 425//425 426//426 427//427
f 425//425 427//427 428//428
f 425//425 428//428 429//429
f 425//425 429//429 430//430
f 425//425 430//430 431//431
f 425//425 431//431 432//432
f 425//425 432//432 433//433
f 425//425 433//433 426//426
f 434//434 436//436 435//435
f 434//434 437//437 436//436
f 434//434 438//438 437//437
f 434//434 439//439 438//438
f 434//434 440//440 439//439
f 434//434 441//441 440//440
f 434//434 442//442 441//441
f 434//434 435//435 442//442
usemtl accent
f 443//443 444//444 445//445
f 443//443 445//445 446//446
f 447//447 448//448 449//449
f 447//447 449//449 450//450
f 451//451 452//452 453//453
f 451//451 453//453 454//454
f 455//455 456//456 457//457
f 455//455 457//457 458//458
f 459//459 460//460 461//461
f 459//459 461//461 462//462
f 463//463 464//464 465//465
f 463//463 465//465 466//466
usemtl dark
f 467//467 468//468 469//469
f 467//467 469//469 470//470
f 471//471 472//472 473//473
f 471//471 473//473 474//474
f 475//475 476//476 477//477
f 475//475 477//477 478//478
f 479//479 480//480 481//481
f 479//479 481//481 482//482
f 483//483 484//484 485//485
f 483//483 485//485 486//486
f 487//487 488//488 489//489
f 487//487 489//489 490//490
usemtl bronze
f 491//491 492//492 493//493
f 491//491 493//493 494//494
f 495//495 496//496 497//497
f 495//495 497//497 498//498
f 499//499 500//500 501//501
f 499//499 501//501 502//502
f 503//503 504//504 505//505
f 503//503 505//505 506//506
f 507//507 508//508 509//509
f 507//507 509//509 510//510
f 511//511 512//512 513//513
f 511//511 513//513 514//514
usemtl accent
f 515//515 516//516 517//517
f 515//515 517//517 518//518
f 519//519 520//520 521//521
f 519//519 521//521 522//522
f 523//523 524//524 525//525
f 523//523 525//525 526//526
f 527//527 528//528 529//529
f 527//527 529//529 530//530
f 531//531 532//532 533//533
f 531//531 533//533 534//534
f 535//535 536//536 537//537
f 535//535 537//537 538//538
f 539//539 540//540 541//541
f 539//539 541//541 542//542
f 543//543 544//544 545//545
f 543//543 545//545 546//546
f 547//547 548//548 549//549
f 547//547 549//549 550//550
f 551//551 552//552 553//553
f 551//551 553//553 554//554
f 555//555 556//556 557//557
f 555//555 557//557 558//558
f 559//559 560//560 561//561
f 559//559 561//561 562//562
usemtl dark
f 563//563 564//564 565//565
f 563//563 565//565 566//566
f 567//567 568//568 569//569
f 567//567 569//569 570//570
f 571//571 572//572 573//573
f 571//571 573//573 574//574
f 575//575 576//576 577//577
f 575//575 577//577 578//578
f 579//579 580//580 581//581
f 579//579 581//581 582//582
f 583//583 584//584 585//585
f 583//583 585//585 586//586
f 587//587 588//588 589//589
f 587//587 589//589 590//590
f 587//587 590//590 591//591
f 587//587 591//591 592//592
f 587//587 592//592 593//593
f 587//587 593//593 588//588
f 594//594 596//596 595//595
f 594//594 597//597 596//596
f 594//594 598//598 597//597
f 594//594 599//599 598//598
f 594//594 600//600 599//599
f 594//594 595//595 600//600
f 601//601 602//602 603//603
f 601//601 603//603 604//604
f 605//605 606//606 607//607
f 605//605 607//607 608//608
f 609//609 610//610 611//611
f 609//609 611//611 612//612
f 613//613 614//614 615//615
f 613//613 615//615 616//616
f 617//617 618//618 619//619
f 617//617 619//619 620//620
f 617//617 620//620 621//621
f 617//617 621//621 618//618
f 622//622 624//624 623//623
f 622//622 625//625 624//624
f 622//622 626//626 625//625
f 622//622 623//623 626//626
usemtl accent
f 627//627 628//628 629//629
f 627//627 629//629 630//630
f 631//631 632//632 633//633
f 631//631 633//633 634//634
f 635//635 636//636 637//637
f 635//635 637//637 638//638
f 639//639 640//640 641//641
f 639//639 641//641 642//642
f 643//643 644//644 645//645
f 643//643 645//645 646//646
f 647//647 648//648 649//649
f 647//647 649//649 650//650
o barrel
v 0.3000 -0.1600 0.3200
v 0.4600 -0.1600 0.3200
v 0.4600 0.1600 0.3200
v 0.3000 0.1600 0.3200
v 0.2800 0.1800 0.0800
v 0.4800 0.1800 0.0800
v 0.4800 -0.1800 0.0800
v 0.2800 -0.1800 0.0800
v 0.4800 -0.1800 0.0800
v 0.4800 0.1800 0.0800
v 0.4600 0.1600 0.3200
v 0.4600 -0.1600 0.3200
v 0.2800 -0.1800 0.0800
v 0.3000 -0.1600 0.3200
v 0.3000 0.1600 0.3200
v 0.2800 0.1800 0.0800
v 0.2800 0.1800 0.0800
v 0.3000 0.1600 0.3200
v 0.4600 0.1600 0.3200
v 0.4800 0.1800 0.0800
v 0.2800 -0.1800 0.0800
v 0.4800 -0.1800 0.0800
v 0.4600 -0.1600 0.3200
v 0.3000 -0.1600 0.3200
v 0.3800 -0.1400 0.3000
v 0.4700 -0.1400 0.3000
v 0.4700 0.1400 0.3000
v 0.3800 0.1400 0.3000
v 0.3600 0.1600 0.1400
v 0.4900 0.1600 0.1400
v 0.4900 -0.1600 0.1400
v 0.3600 -0.1600 0.1400
v 0.4900 -0.1600 0.1400
v 0.4900 0.1600 0.1400
v 0.4700 0.1400 0.3000
v 0.4700 -0.1400 0.3000
v 0.3600 -0.1600 0.1400
v 0.3800 -0.1400 0.3000
v 0.3800 0.1400 0.3000
v 0.3600 0.1600 0.1400
v 0.3600 0.1600 0.1400
v 0.3800 0.1400 0.3000
v 0.4700 0.1400 0.3000
v 0.4900 0.1600 0.1400
v 0.3600 -0.1600 0.1400
v 0.4900 -0.1600 0.1400
v 0.4700 -0.1400 0.3000
v 0.3800 -0.1400 0.3000
v 0.2400 0.1550 0.1400
v 0.2400 0.1425 0.1617
v 0.4800 0.1425 0.1617
v 0.4800 0.1550 0.1400
v 0.2400 0.1425 0.1617
v 0.2400 0.1175 0.1617
v 0.4800 0.1175 0.1617
v 0.4800 0.1425 0.1617
v 0.2400 0.1175 0.1617
v 0.2400 0.1050 0.1400
v 0.4800 0.1050 0.1400
v 0.4800 0.1175 0.1617
v 0.2400 0.1050 0.1400
v 0.2400 0.1175 0.1183
v 0.4800 0.1175 0.1183
v 0.4800 0.1050 0.1400
v 0.2400 0.1175 0.1183
v 0.2400 0.1425 0.1183
v 0.4800 0.1425 0.1183
v 0.4800 0.1175 0.1183
v 0.2400 0.1425 0.1183
v 0.2400 0.1550 0.1400
v 0.4800 0.1550 0.1400
v 0.4800 0.1425 0.1183
v 0.4800 0.1300 0.1400
v 0.4800 0.1550 0.1400
v 0.4800 0.1425 0.1617
v 0.4800 0.1175 0.1617
v 0.4800 0.1050 0.1400
v 0.4800 0.1175 0.1183
v 0.4800 0.1425 0.1183
v 0.2400 0.1300 0.1400
v 0.2400 0.1550 0.1400
v 0.2400 0.1425 0.1617
v 0.2400 0.1175 0.1617
v 0.2400 0.1050 0.1400
v 0.2400 0.1175 0.1183
v 0.2400 0.1425 0.1183
v 0.2400 -0.1050 0.1400
v 0.2400 -0.1175 0.1617
v 0.4800 -0.1175 0.1617
v 0.4800 -0.1050 0.1400
v 0.2400 -0.1175 0.1617
v 0.2400 -0.1425 0.1617
v 0.4800 -0.1425 0.1617
v 0.4800 -0.1175 0.1617
v 0.2400 -0.1425 0.1617
v 0.2400 -0.1550 0.1400
v 0.4800 -0.1550 0.1400
v 0.4800 -0.1425 0.1617
v 0.2400 -0.1550 0.1400
v 0.2400 -0.1425 0.1183
v 0.4800 -0.1425 0.1183
v 0.4800 -0.1550 0.1400
v 0.2400 -0.1425 0.1183
v 0.2400 -0.1175 0.1183
v 0.4800 -0.1175 0.1183
v 0.4800 -0.1425 0.1183
v 0.2400 -0.1175 0.1183
v 0.2400 -0.1050 0.1400
v 0.4800 -0.1050 0.1400
v 0.4800 -0.1175 0.1183
v 0.4800 -0.1300 0.1400
v 0.4800 -0.1050 0.1400
v 0.4800 -0.1175 0.1617
v 0.4800 -0.1425 0.1617
v 0.4800 -0.1550 0.1400
v 0.4800 -0.1425 0.1183
v 0.4800 -0.1175 0.1183
v 0.2400 -0.1300 0.1400
v 0.2400 -0.1050 0.1400
v 0.2400 -0.1175 0.1617
v 0.2400 -0.1425 0.1617
v 0.2400 -0.1550 0.1400
v 0.2400 -0.1425 0.1183
v 0.2400 -0.1175 0.1183
v 0.4600 0.1520 0.2000
v 0.4600 0.1338 0.2438
v 0.8000 0.1296 0.2396
v 0.8000 0.1460 0.2000
v 0.4600 0.1338 0.2438
v 0.4600 0.0900 0.2620
v 0.8000 0.0900 0.2560
v 0.8000 0.1296 0.2396
v 0.4600 0.0900 0.2620
v 0.4600 0.0462 0.2438
v 0.8000 0.0504 0.2396
v 0.8000 0.0900 0.2560
v 0.4600 0.0462 0.2438
v 0.4600 0.0280 0.2000
v 0.8000 0.0340 0.2000
v 0.8000 0.0504 0.2396
v 0.4600 0.0280 0.2000
v 0.4600 0.0462 0.1562
v 0.8000 0.0504 0.1604
v 0.8000 0.0340 0.2000
v 0.4600 0.0462 0.1562
v 0.4600 0.0900 0.1380
v 0.8000 0.0900 0.1440
v 0.8000 0.0504 0.1604
v 0.4600 0.0900 0.1380
v 0.4600 0.1338 0.1562
v 0.8000 0.1296 0.1604
v 0.8000 0.0900 0.1440
v 0.4600 0.1338 0.1562
v 0.4600 0.1520 0.2000
v 0.8000 0.1460 0.2000
v 0.8000 0.1296 0.1604
v 0.8000 0.0900 0.2000
v 0.8000 0.1460 0.2000
v 0.8000 0.1296 0.2396
v 0.8000 0.0900 0.2560
v 0.8000 0.0504 0.2396
v 0.8000 0.0340 0.2000
v 0.8000 0.0504 0.1604
v 0.8000 0.0900 0.1440
v 0.8000 0.1296 0.1604
v 0.4600 0.0900 0.2000
v 0.4600 0.1520 0.2000
v 0.4600 0.1338 0.2438
v 0.4600 0.0900 0.2620
v 0.4600 0.0462 0.2438
v 0.4600 0.0280 0.2000
v 0.4600 0.0462 0.1562
v 0.4600 0.0900 0.1380
v 0.4600 0.1338 0.1562
v 0.8000 0.1360 0.2000
v 0.8000 0.1225 0.2325
v 1.2000 0.1197 0.2297
v 1.2000 0.1320 0.2000
v 0.8000 0.1225 0.2325
v 0.8000 0.0900 0.2460
v 1.2000 0.0900 0.2420
v 1.2000 0.1197 0.2297
v 0.8000 0.0900 0.2460
v 0.8000 0.0575 0.2325
v 1.2000 0.0603 0.2297
v 1.2000 0.0900 0.2420
v 0.8000 0.0575 0.2325
v 0.8000 0.0440 0.2000
v 1.2000 0.0480 0.2000
v 1.2000 0.0603 0.2297
v 0.8000 0.0440 0.2000
v 0.8000 0.0575 0.1675
v 1.2000 0.0603 0.1703
v 1.2000 0.0480 0.2000
v 0.8000 0.0575 0.1675
v 0.8000 0.0900 0.1540
v 1.2000 0.0900 0.1580
v 1.2000 0.0603 0.1703
v 0.8000 0.0900 0.1540
v 0.8000 0.1225 0.1675
v 1.2000 0.1197 0.1703
v 1.2000 0.0900 0.1580
v 0.8000 0.1225 0.1675
v 0.8000 0.1360 0.2000
v 1.2000 0.1320 0.2000
v 1.2000 0.1197 0.1703
v 1.2000 0.0900 0.2000
v 1.2000 0.1320 0.2000
v 1.2000 0.1197 0.2297
v 1.2000 0.0900 0.2420
v 1.2000 0.0603 0.2297
v 1.2000 0.0480 0.2000
v 1.2000 0.0603 0.1703
v 1.2000 0.0900 0.1580
v 1.2000 0.1197 0.1703
v 0.8000 0.0900 0.2000
v 0.8000 0.1360 0.2000
v 0.8000 0.1225 0.2325
v 0.8000 0.0900 0.2460
v 0.8000 0.0575 0.2325
v 0.8000 0.0440 0.2000
v 0.8000 0.0575 0.1675
v 0.8000 0.0900 0.1540
v 0.8000 0.1225 0.1675
v 0.9200 0.1440 0.2000
v 0.9200 0.1282 0.2382
v 0.9800 0.1282 0.2382
v 0.9800 0.1440 0.2000
v 0.9200 0.1282 0.2382
v 0.9200 0.0900 0.2540
v 0.9800 0.0900 0.2540
v 0.9800 0.1282 0.2382
v 0.9200 0.0900 0.2540
v 0.9200 0.0518 0.2382
v 0.9800 0.0518 0.2382
v 0.9800 0.0900 0.2540
v 0.9200 0.0518 0.2382
v 0.9200 0.0360 0.2000
v 0.9800 0.0360 0.2000
v 0.9800 0.0518 0.2382
v 0.9200 0.0360 0.2000
v 0.9200 0.0518 0.1618
v 0.9800 0.0518 0.1618
v 0.9800 0.0360 0.2000
v 0.9200 0.0518 0.1618
v 0.9200 0.0900 0.1460
v 0.9800 0.0900 0.1460
v 0.9800 0.0518 0.1618
v 0.9200 0.0900 0.1460
v 0.9200 0.1282 0.1618
v 0.9800 0.1282 0.1618
v 0.9800 0.0900 0.1460
v 0.9200 0.1282 0.1618
v 0.9200 0.1440 0.2000
v 0.9800 0.1440 0.2000
v 0.9800 0.1282 0.1618
v 0.9800 0.0900 0.2000
v 0.9800 0.1440 0.2000
v 0.9800 0.1282 0.2382
v 0.9800 0.0900 0.2540
v 0.9800 0.0518 0.2382
v 0.9800 0.0360 0.2000
v 0.9800 0.0518 0.1618
v 0.9800 0.0900 0.1460
v 0.9800 0.1282 0.1618
v 0.9200 0.0900 0.2000
v 0.9200 0.1440 0.2000
v 0.9200 0.1282 0.2382
v 0.9200 0.0900 0.2540
v 0.9200 0.0518 0.2382
v 0.9200 0.0360 0.2000
v 0.9200 0.0518 0.1618
v 0.9200 0.0900 0.1460
v 0.9200 0.1282 0.1618
v 1.2000 0.1540 0.2000
v 1.2000 0.1353 0.2453
v 1.3600 0.1310 0.2410
v 1.3600 0.1480 0.2000
v 1.2000 0.1353 0.2453
v 1.2000 0.0900 0.2640
v 1.3600 0.0900 0.2580
v 1.3600 0.1310 0.2410
v 1.2000 0.0900 0.2640
v 1.2000 0.0447 0.2453
v 1.3600 0.0490 0.2410
v 1.3600 0.0900 0.2580
v 1.2000 0.0447 0.2453
v 1.2000 0.0260 0.2000
v 1.3600 0.0320 0.2000
v 1.3600 0.0490 0.2410
v 1.2000 0.0260 0.2000
v 1.2000 0.0447 0.1547
v 1.3600 0.0490 0.1590
v 1.3600 0.0320 0.2000
v 1.2000 0.0447 0.1547
v 1.2000 0.0900 0.1360
v 1.3600 0.0900 0.1420
v 1.3600 0.0490 0.1590
v 1.2000 0.0900 0.1360
v 1.2000 0.1353 0.1547
v 1.3600 0.1310 0.1590
v 1.3600 0.0900 0.1420
v 1.2000 0.1353 0.1547
v 1.2000 0.1540 0.2000
v 1.3600 0.1480 0.2000
v 1.3600 0.1310 0.1590
v 1.3600 0.0900 0.2000
v 1.3600 0.1480 0.2000
v 1.3600 0.1310 0.2410
v 1.3600 0.0900 0.2580
v 1.3600 0.0490 0.2410
v 1.3600 0.0320 0.2000
v 1.3600 0.0490 0.1590
v 1.3600 0.0900 0.1420
v 1.3600 0.1310 0.1590
v 1.2000 0.0900 0.2000
v 1.2000 0.1540 0.2000
v 1.2000 0.1353 0.2453
v 1.2000 0.0900 0.2640
v 1.2000 0.0447 0.2453
v 1.2000 0.0260 0.2000
v 1.2000 0.0447 0.1547
v 1.2000 0.0900 0.1360
v 1.2000 0.1353 0.1547
v 1.2400 0.1580 0.2000
v 1.2400 0.1381 0.2481
v 1.3200 0.1381 0.2481
v 1.3200 0.1580 0.2000
v 1.2400 0.1381 0.2481
v 1.2400 0.0900 0.2680
v 1.3200 0.0900 0.2680
v 1.3200 0.1381 0.2481
v 1.2400 0.0900 0.2680
v 1.2400 0.0419 0.2481
v 1.3200 0.0419 0.2481
v 1.3200 0.0900 0.2680
v 1.2400 0.0419 0.2481
v 1.2400 0.0220 0.2000
v 1.3200 0.0220 0.2000
v 1.3200 0.0419 0.2481
v 1.2400 0.0220 0.2000
v 1.2400 0.0419 0.1519
v 1.3200 0.0419 0.1519
v 1.3200 0.0220 0.2000
v 1.2400 0.0419 0.1519
v 1.2400 0.0900 0.1320
v 1.3200 0.0900 0.1320
v 1.3200 0.0419 0.1519
v 1.2400 0.0900 0.1320
v 1.2400 0.1381 0.1519
v 1.3200 0.1381 0.1519
v 1.3200 0.0900 0.1320
v 1.2400 0.1381 0.1519
v 1.2400 0.1580 0.2000
v 1.3200 0.1580 0.2000
v 1.3200 0.1381 0.1519
v 1.3200 0.0900 0.2000
v 1.3200 0.1580 0.2000
v 1.3200 0.1381 0.2481
v 1.3200 0.0900 0.2680
v 1.3200 0.0419 0.2481
v 1.3200 0.0220 0.2000
v 1.3200 0.0419 0.1519
v 1.3200 0.0900 0.1320
v 1.3200 0.1381 0.1519
v 1.2400 0.0900 0.2000
v 1.2400 0.1580 0.2000
v 1.2400 0.1381 0.2481
v 1.2400 0.0900 0.2680
v 1.2400 0.0419 0.2481
v 1.2400 0.0220 0.2000
v 1.2400 0.0419 0.1519
v 1.2400 0.0900 0.1320
v 1.2400 0.1381 0.1519
v 1.3500 0.1220 0.2000
v 1.3500 0.1126 0.2226
v 1.3700 0.1126 0.2226
v 1.3700 0.1220 0.2000
v 1.3500 0.1126 0.2226
v 1.3500 0.0900 0.2320
v 1.3700 0.0900 0.2320
v 1.3700 0.1126 0.2226
v 1.3500 0.0900 0.2320
v 1.3500 0.0674 0.2226
v 1.3700 0.0674 0.2226
v 1.3700 0.0900 0.2320
v 1.3500 0.0674 0.2226
v 1.3500 0.0580 0.2000
v 1.3700 0.0580 0.2000
v 1.3700 0.0674 0.2226
v 1.3500 0.0580 0.2000
v 1.3500 0.0674 0.1774
v 1.3700 0.0674 0.1774
v 1.3700 0.0580 0.2000
v 1.3500 0.0674 0.1774
v 1.3500 0.0900 0.1680
v 1.3700 0.0900 0.1680
v 1.3700 0.0674 0.1774
v 1.3500 0.0900 0.1680
v 1.3500 0.1126 0.1774
v 1.3700 0.1126 0.1774
v 1.3700 0.0900 0.1680
v 1.3500 0.1126 0.1774
v 1.3500 0.1220 0.2000
v 1.3700 0.1220 0.2000
v 1.3700 0.1126 0.1774
v 1.3700 0.0900 0.2000
v 1.3700 0.1220 0.2000
v 1.3700 0.1126 0.2226
v 1.3700 0.0900 0.2320
v 1.3700 0.0674 0.2226
v 1.3700 0.0580 0.2000
v 1.3700 0.0674 0.1774
v 1.3700 0.0900 0.1680
v 1.3700 0.1126 0.1774
v 0.4600 -0.0280 0.2000
v 0.4600 -0.0462 0.2438
v 0.8000 -0.0504 0.2396
v 0.8000 -0.0340 0.2000
v 0.4600 -0.0462 0.2438
v 0.4600 -0.0900 0.2620
v 0.8000 -0.0900 0.2560
v 0.8000 -0.0504 0.2396
v 0.4600 -0.0900 0.2620
v 0.4600 -0.1338 0.2438
v 0.8000 -0.1296 0.2396
v 0.8000 -0.0900 0.2560
v 0.4600 -0.1338 0.2438
v 0.4600 -0.1520 0.2000
v 0.8000 -0.1460 0.2000
v 0.8000 -0.1296 0.2396
v 0.4600 -0.1520 0.2000
v 0.4600 -0.1338 0.1562
v 0.8000 -0.1296 0.1604
v 0.8000 -0.1460 0.2000
v 0.4600 -0.1338 0.1562
v 0.4600 -0.0900 0.1380
v 0.8000 -0.0900 0.1440
v 0.8000 -0.1296 0.1604
v 0.4600 -0.0900 0.1380
v 0.4600 -0.0462 0.1562
v 0.8000 -0.0504 0.1604
v 0.8000 -0.0900 0.1440
v 0.4600 -0.0462 0.1562
v 0.4600 -0.0280 0.2000
v 0.8000 -0.0340 0.2000
v 0.8000 -0.0504 0.1604
v 0.8000 -0.0900 0.2000
v 0.8000 -0.0340 0.2000
v 0.8000 -0.0504 0.2396
v 0.8000 -0.0900 0.2560
v 0.8000 -0.1296 0.2396
v 0.8000 -0.1460 0.2000
v 0.8000 -0.1296 0.1604
v 0.8000 -0.0900 0.1440
v 0.8000 -0.0504 0.1604
v 0.4600 -0.0900 0.2000
v 0.4600 -0.0280 0.2000
v 0.4600 -0.0462 0.2438
v 0.4600 -0.0900 0.2620
v 0.4600 -0.1338 0.2438
v 0.4600 -0.1520 0.2000
v 0.4600 -0.1338 0.1562
v 0.4600 -0.0900 0.1380
v 0.4600 -0.0462 0.1562
v 0.8000 -0.0440 0.2000
v 0.8000 -0.0575 0.2325
v 1.2000 -0.0603 0.2297
v 1.2000 -0.0480 0.2000
v 0.8000 -0.0575 0.2325
v 0.8000 -0.0900 0.2460
v 1.2000 -0.0900 0.2420
v 1.2000 -0.0603 0.2297
v 0.8000 -0.0900 0.2460
v 0.8000 -0.1225 0.2325
v 1.2000 -0.1197 0.2297
v 1.2000 -0.0900 0.2420
v 0.8000 -0.1225 0.2325
v 0.8000 -0.1360 0.2000
v 1.2000 -0.1320 0.2000
v 1.2000 -0.1197 0.2297
v 0.8000 -0.1360 0.2000
v 0.8000 -0.1225 0.1675
v 1.2000 -0.1197 0.1703
v 1.2000 -0.1320 0.2000
v 0.8000 -0.1225 0.1675
v 0.8000 -0.0900 0.1540
v 1.2000 -0.0900 0.1580
v 1.2000 -0.1197 0.1703
v 0.8000 -0.0900 0.1540
v 0.8000 -0.0575 0.1675
v 1.2000 -0.0603 0.1703
v 1.2000 -0.0900 0.1580
v 0.8000 -0.0575 0.1675
v 0.8000 -0.0440 0.2000
v 1.2000 -0.0480 0.2000
v 1.2000 -0.0603 0.1703
v 1.2000 -0.0900 0.2000
v 1.2000 -0.0480 0.2000
v 1.2000 -0.0603 0.2297
v 1.2000 -0.0900 0.2420
v 1.2000 -0.1197 0.2297
v 1.2000 -0.1320 0.2000
v 1.2000 -0.1197 0.1703
v 1.2000 -0.0900 0.1580
v 1.2000 -0.0603 0.1703
v 0.8000 -0.0900 0.2000
v 0.8000 -0.0440 0.2000
v 0.8000 -0.0575 0.2325
v 0.8000 -0.0900 0.2460
v 0.8000 -0.1225 0.2325
v 0.8000 -0.1360 0.2000
v 0.8000 -0.1225 0.1675
v 0.8000 -0.0900 0.1540
v 0.8000 -0.0575 0.1675
v 0.9200 -0.0360 0.2000
v 0.9200 -0.0518 0.2382
v 0.9800 -0.0518 0.2382
v 0.9800 -0.0360 0.2000
v 0.9200 -0.0518 0.2382
v 0.9200 -0.0900 0.2540
v 0.9800 -0.0900 0.2540
v 0.9800 -0.0518 0.2382
v 0.9200 -0.0900 0.2540
v 0.9200 -0.1282 0.2382
v 0.9800 -0.1282 0.2382
v 0.9800 -0.0900 0.2540
v 0.9200 -0.1282 0.2382
v 0.9200 -0.1440 0.2000
v 0.9800 -0.1440 0.2000
v 0.9800 -0.1282 0.2382
v 0.9200 -0.1440 0.2000
v 0.9200 -0.1282 0.1618
v 0.9800 -0.1282 0.1618
v 0.9800 -0.1440 0.2000
v 0.9200 -0.1282 0.1618
v 0.9200 -0.0900 0.1460
v 0.9800 -0.0900 0.1460
v 0.9800 -0.1282 0.1618
v 0.9200 -0.0900 0.1460
v 0.9200 -0.0518 0.1618
v 0.9800 -0.0518 0.1618
v 0.9800 -0.0900 0.1460
v 0.9200 -0.0518 0.1618
v 0.9200 -0.0360 0.2000
v 0.9800 -0.0360 0.2000
v 0.9800 -0.0518 0.1618
v 0.9800 -0.0900 0.2000
v 0.9800 -0.0360 0.2000
v 0.9800 -0.0518 0.2382
v 0.9800 -0.0900 0.2540
v 0.9800 -0.1282 0.2382
v 0.9800 -0.1440 0.2000
v 0.9800 -0.1282 0.1618
v 0.9800 -0.0900 0.1460
v 0.9800 -0.0518 0.1618
v 0.9200 -0.0900 0.2000
v 0.9200 -0.0360 0.2000
v 0.9200 -0.0518 0.2382
v 0.9200 -0.0900 0.2540
v 0.9200 -0.1282 0.2382
v 0.9200 -0.1440 0.2000
v 0.9200 -0.1282 0.1618
v 0.9200 -0.0900 0.1460
v 0.9200 -0.0518 0.1618
v 1.2000 -0.0260 0.2000
v 1.2000 -0.0447 0.2453
v 1.3600 -0.0490 0.2410
v 1.3600 -0.0320 0.2000
v 1.2000 -0.0447 0.2453
v 1.2000 -0.0900 0.2640
v 1.3600 -0.0900 0.2580
v 1.3600 -0.0490 0.2410
v 1.2000 -0.0900 0.2640
v 1.2000 -0.1353 0.2453
v 1.3600 -0.1310 0.2410
v 1.3600 -0.0900 0.2580
v 1.2000 -0.1353 0.2453
v 1.2000 -0.1540 0.2000
v 1.3600 -0.1480 0.2000
v 1.3600 -0.1310 0.2410
v 1.2000 -0.1540 0.2000
v 1.2000 -0.1353 0.1547
v 1.3600 -0.1310 0.1590
v 1.3600 -0.1480 0.2000
v 1.2000 -0.1353 0.1547
v 1.2000 -0.0900 0.1360
v 1.3600 -0.0900 0.1420
v 1.3600 -0.1310 0.1590
v 1.2000 -0.0900 0.1360
v 1.2000 -0.0447 0.1547
v 1.3600 -0.0490 0.1590
v 1.3600 -0.0900 0.1420
v 1.2000 -0.0447 0.1547
v 1.2000 -0.0260 0.2000
v 1.3600 -0.0320 0.2000
v 1.3600 -0.0490 0.1590
v 1.3600 -0.0900 0.2000
v 1.3600 -0.0320 0.2000
v 1.3600 -0.0490 0.2410
v 1.3600 -0.0900 0.2580
v 1.3600 -0.1310 0.2410
v 1.3600 -0.1480 0.2000
v 1.3600 -0.1310 0.1590
v 1.3600 -0.0900 0.1420
v 1.3600 -0.0490 0.1590
v 1.2000 -0.0900 0.2000
v 1.2000 -0.0260 0.2000
v 1.2000 -0.0447 0.2453
v 1.2000 -0.0900 0.2640
v 1.2000 -0.1353 0.2453
v 1.2000 -0.1540 0.2000
v 1.2000 -0.1353 0.1547
v 1.2000 -0.0900 0.1360
v 1.2000 -0.0447 0.1547
v 1.2400 -0.0220 0.2000
v 1.2400 -0.0419 0.2481
v 1.3200 -0.0419 0.2481
v 1.3200 -0.0220 0.2000
v 1.2400 -0.0419 0.2481
v 1.2400 -0.0900 0.2680
v 1.3200 -0.0900 0.2680
v 1.3200 -0.0419 0.2481
v 1.2400 -0.0900 0.2680
v 1.2400 -0.1381 0.2481
v 1.3200 -0.1381 0.2481
v 1.3200 -0.0900 0.2680
v 1.2400 -0.1381 0.2481
v 1.2400 -0.1580 0.2000
v 1.3200 -0.1580 0.2000
v 1.3200 -0.1381 0.2481
v 1.2400 -0.1580 0.2000
v 1.2400 -0.1381 0.1519
v 1.3200 -0.1381 0.1519
v 1.3200 -0.1580 0.2000
v 1.2400 -0.1381 0.1519
v 1.2400 -0.0900 0.1320
v 1.3200 -0.0900 0.1320
v 1.3200 -0.1381 0.1519
v 1.2400 -0.0900 0.1320
v 1.2400 -0.0419 0.1519
v 1.3200 -0.0419 0.1519
v 1.3200 -0.0900 0.1320
v 1.2400 -0.0419 0.1519
v 1.2400 -0.0220 0.2000
v 1.3200 -0.0220 0.2000
v 1.3200 -0.0419 0.1519
v 1.3200 -0.0900 0.2000
v 1.3200 -0.0220 0.2000
v 1.3200 -0.0419 0.2481
v 1.3200 -0.0900 0.2680
v 1.3200 -0.1381 0.2481
v 1.3200 -0.1580 0.2000
v 1.3200 -0.1381 0.1519
v 1.3200 -0.0900 0.1320
v 1.3200 -0.0419 0.1519
v 1.2400 -0.0900 0.2000
v 1.2400 -0.0220 0.2000
v 1.2400 -0.0419 0.2481
v 1.2400 -0.0900 0.2680
v 1.2400 -0.1381 0.2481
v 1.2400 -0.1580 0.2000
v 1.2400 -0.1381 0.1519
v 1.2400 -0.0900 0.1320
v 1.2400 -0.0419 0.1519
v 1.3500 -0.0580 0.2000
v 1.3500 -0.0674 0.2226
v 1.3700 -0.0674 0.2226
v 1.3700 -0.0580 0.2000
v 1.3500 -0.0674 0.2226
v 1.3500 -0.0900 0.2320
v 1.3700 -0.0900 0.2320
v 1.3700 -0.0674 0.2226
v 1.3500 -0.0900 0.2320
v 1.3500 -0.1126 0.2226
v 1.3700 -0.1126 0.2226
v 1.3700 -0.0900 0.2320
v 1.3500 -0.1126 0.2226
v 1.3500 -0.1220 0.2000
v 1.3700 -0.1220 0.2000
v 1.3700 -0.1126 0.2226
v 1.3500 -0.1220 0.2000
v 1.3500 -0.1126 0.1774
v 1.3700 -0.1126 0.1774
v 1.3700 -0.1220 0.2000
v 1.3500 -0.1126 0.1774
v 1.3500 -0.0900 0.1680
v 1.3700 -0.0900 0.1680
v 1.3700 -0.1126 0.1774
v 1.3500 -0.0900 0.1680
v 1.3500 -0.0674 0.1774
v 1.3700 -0.0674 0.1774
v 1.3700 -0.0900 0.1680
v 1.3500 -0.0674 0.1774
v 1.3500 -0.0580 0.2000
v 1.3700 -0.0580 0.2000
v 1.3700 -0.0674 0.1774
v 1.3700 -0.0900 0.2000
v 1.3700 -0.0580 0.2000
v 1.3700 -0.0674 0.2226
v 1.3700 -0.0900 0.2320
v 1.3700 -0.1126 0.2226
v 1.3700 -0.1220 0.2000
v 1.3700 -0.1126 0.1774
v 1.3700 -0.0900 0.1680
v 1.3700 -0.0674 0.1774
v 0.5200 -0.0400 0.2300
v 0.8200 -0.0400 0.2300
v 0.8200 0.0400 0.2300
v 0.5200 0.0400 0.2300
v 0.5200 0.0400 0.1700
v 0.8200 0.0400 0.1700
v 0.8200 -0.0400 0.1700
v 0.5200 -0.0400 0.1700
v 0.8200 -0.0400 0.1700
v 0.8200 0.0400 0.1700
v 0.8200 0.0400 0.2300
v 0.8200 -0.0400 0.2300
v 0.5200 -0.0400 0.2300
v 0.5200 0.0400 0.2300
v 0.5200 0.0400 0.1700
v 0.5200 -0.0400 0.1700
v 0.5200 0.0400 0.1700
v 0.8200 0.0400 0.1700
v 0.8200 0.0400 0.2300
v 0.5200 0.0400 0.2300
v 0.5200 -0.0400 0.2300
v 0.8200 -0.0400 0.2300
v 0.8200 -0.0400 0.1700
v 0.5200 -0.0400 0.1700
v 0.8200 0.0300 0.2000
v 0.8200 0.0150 0.2260
v 0.9400 0.0150 0.2260
v 0.9400 0.0300 0.2000
v 0.8200 0.0150 0.2260
v 0.8200 -0.0150 0.2260
v 0.9400 -0.0150 0.2260
v 0.9400 0.0150 0.2260
v 0.8200 -0.0150 0.2260
v 0.8200 -0.0300 0.2000
v 0.9400 -0.0300 0.2000
v 0.9400 -0.0150 0.2260
v 0.8200 -0.0300 0.2000
v 0.8200 -0.0150 0.1740
v 0.9400 -0.0150 0.1740
v 0.9400 -0.0300 0.2000
v 0.8200 -0.0150 0.1740
v 0.8200 0.0150 0.1740
v 0.9400 0.0150 0.1740
v 0.9400 -0.0150 0.1740
v 0.8200 0.0150 0.1740
v 0.8200 0.0300 0.2000
v 0.9400 0.0300 0.2000
v 0.9400 0.0150 0.1740
v 0.9400 0.0000 0.2000
v 0.9400 0.0300 0.2000
v 0.9400 0.0150 0.2260
v 0.9400 -0.0150 0.2260
v 0.9400 -0.0300 0.2000
v 0.9400 -0.0150 0.1740
v 0.9400 0.0150 0.1740
v 0.8200 0.0000 0.2000
v 0.8200 0.0300 0.2000
v 0.8200 0.0150 0.2260
v 0.8200 -0.0150 0.2260
v 0.8200 -0.0300 0.2000
v 0.8200 -0.0150 0.1740
v 0.8200 0.0150 0.1740
vn 0.0000 0.0000 1.0000
vn 0.0000 0.0000 1.0000
vn 0.0000 0.0000 1.0000
vn 0.0000 0.0000 1.0000
vn 0.0000 0.0000 -1.0000
vn 0.0000 0.0000 -1.0000
vn 0.0000 0.0000 -1.0000
vn 0.0000 0.0000 -1.0000
vn 0.9965 0.0000 0.0830
vn 0.9965 0.0000 0.0830
vn 0.9965 0.0000 0.0830
vn 0.9965 0.0000 0.0830
vn -0.9965 0.0000 0.0830
vn -0.9965 0.0000 0.0830
vn -0.9965 0.0000 0.0830
vn -0.9965 0.0000 0.0830
vn 0.0000 0.9965 0.0830
vn 0.0000 0.9965 0.0830
vn 0.0000 0.9965 0.0830
vn 0.0000 0.9965 0.0830
vn 0.0000 -0.9965 0.0830
vn 0.0000 -0.9965 0.0830
vn 0.0000 -0.9965 0.0830
vn 0.0000 -0.9965 0.0830
vn 0.0000 0.0000 1.0000
vn 0.0000 0.0000 1.0000
vn 0.0000 0.0000 1.0000
vn 0.0000 0.0000 1.0000
vn 0.0000 0.0000 -1.0000
vn 0.0000 0.0000 -1.0000
vn 0.0000 0.0000 -1.0000
vn 0.0000 0.0000 -1.0000
vn 0.9923 0.0000 0.1240
vn 0.9923 0.0000 0.1240
vn 0.9923 0.0000 0.1240
vn 0.9923 0.0000 0.1240
vn -0.9923 0.0000 0.1240
vn -0.9923 0.0000 0.1240
vn -0.9923 0.0000 0.1240
vn -0.9923 0.0000 0.1240
vn 0.0000 0.9923 0.1240
vn 0.0000 0.9923 0.1240
vn 0.0000 0.9923 0.1240
vn 0.0000 0.9923 0.1240
vn 0.0000 -0.9923 0.1240
vn 0.0000 -0.9923 0.1240
vn 0.0000 -0.9923 0.1240
vn 0.0000 -0.9923 0.1240
vn 0.0000 0.8660 0.5000
vn 0.0000 0.8660 0.5000
vn 0.0000 0.8660 0.5000
vn 0.0000 0.8660 0.5000
vn 0.0000 0.0000 1.0000
vn 0.0000 0.0000 1.0000
vn 0.0000 0.0000 1.0000
vn 0.0000 0.0000 1.0000
vn 0.0000 -0.8660 0.5000
vn 0.0000 -0.8660 0.5000
vn 0.0000 -0.8660 0.5000
vn 0.0000 -0.8660 0.5000
vn 0.0000 -0.8660 -0.5000
vn 0.0000 -0.8660 -0.5000
vn 0.0000 -0.8660 -0.5000
vn 0.0000 -0.8660 -0.5000
vn 0.0000 -0.0000 -1.0000
vn 0.0000 -0.0000 -1.0000
vn 0.0000 -0.0000 -1.0000
vn 0.0000 -0.0000 -1.0000
vn 0.0000 0.8660 -0.5000
vn 0.0000 0.8660 -0.5000
vn 0.0000 0.8660 -0.5000
vn 0.0000 0.8660 -0.5000
vn 1.0000 0.0000 0.0000
vn 1.0000 0.0000 0.0000
vn 1.0000 0.0000 0.0000
vn 1.0000 0.0000 0.0000
vn 1.0000 0.0000 0.0000
vn 1.0000 0.0000 0.0000
vn 1.0000 0.0000 0.0000
vn -1.0000 0.0000 0.0000
vn -1.0000 0.0000 0.0000
vn -1.0000 0.0000 0.0000
vn -1.0000 0.0000 0.0000
vn -1.0000 0.0000 0.0000
vn -1.0000 0.0000 0.0000
vn -1.0000 0.0000 0.0000
vn 0.0000 0.8660 0.5000
vn 0.0000 0.8660 0.5000
vn 0.0000 0.8660 0.5000
vn 0.0000 0.8660 0.5000
vn 0.0000 0.0000 1.0000
vn 0.0000 0.0000 1.0000
vn 0.0000 0.0000 1.0000
vn 0.0000 0.0000 1.0000
vn 0.0000 -0.8660 0.5000
vn 0.0000 -0.8660 0.5000
vn 0.0000 -0.8660 0.5000
vn 0.0000 -0.8660 0.5000
vn 0.0000 -0.8660 -0.5000
vn 0.0000 -0.8660 -0.5000
vn 0.0000 -0.8660 -0.5000
vn 0.0000 -0.8660 -0.5000
vn 0.0000 -0.0000 -1.0000
vn 0.0000 -0.0000 -1.0000
vn 0.0000 -0.0000 -1.0000
vn 0.0000 -0.0000 -1.0000
vn 0.0000 0.8660 -0.5000
vn 0.0000 0.8660 -0.5000
vn 0.0000 0.8660 -0.5000
vn 0.0000 0.8660 -0.5000
vn 1.0000 0.0000 0.0000
vn 1.0000 0.0000 0.0000
vn 1.0000 0.0000 0.0000
vn 1.0000 0.0000 0.0000
vn 1.0000 0.0000 0.0000
vn 1.0000 0.0000 0.0000
vn 1.0000 0.0000 0.0000
vn -1.0000 0.0000 0.0000
vn -1.0000 0.0000 0.0000
vn -1.0000 0.0000 0.0000
vn -1.0000 0.0000 0.0000
vn -1.0000 0.0000 0.0000
vn -1.0000 0.0000 0.0000
vn -1.0000 0.0000 0.0000
vn 0.0176 0.9237 0.3826
vn 0.0176 0.9237 0.3826
vn 0.0176 0.9237 0.3826
vn 0.0176 0.9237 0.3826
vn 0.0176 0.3826 0.9237
vn 0.0176 0.3826 0.9237
vn 0.0176 0.3826 0.9237
vn 0.0176 0.3826 0.9237
vn 0.0176 -0.3826 0.9237
vn 0.0176 -0.3826 0.9237
vn 0.0176 -0.3826 0.9237
vn 0.0176 -0.3826 0.9237
vn 0.0176 -0.9237 0.3826
vn 0.0176 -0.9237 0.3826
vn 0.0176 -0.9237 0.3826
vn 0.0176 -0.9237 0.3826
vn 0.0176 -0.9237 -0.3826
vn 0.0176 -0.9237 -0.3826
vn 0.0176 -0.9237 -0.3826
vn 0.0176 -0.9237 -0.3826
vn 0.0176 -0.3826 -0.9237
vn 0.0176 -0.3826 -0.9237
vn 0.0176 -0.3826 -0.9237
vn 0.0176 -0.3826 -0.9237
vn 0.0176 0.3826 -0.9237
vn 0.0176 0.3826 -0.9237
vn 0.0176 0.3826 -0.9237
vn 0.0176 0.3826 -0.9237
vn 0.0176 0.9237 -0.3826
vn 0.0176 0.9237 -0.3826
vn 0.0176 0.9237 -0.3826
vn 0.0176 0.9237 -0.3826
vn 1.0000 0.0000 0.0000
vn 1.0000 0.0000 0.0000
vn 1.0000 0.0000 0.0000
vn 1.0000 0.0000 0.0000
vn 1.0000 0.0000 0.0000
vn 1.0000 0.0000 0.0000
vn 1.0000 0.0000 0.0000
vn 1.0000 0.0000 0.0000
vn 1.0000 0.0000 0.0000
vn -1.0000 0.0000 0.0000
vn -1.0000 0.0000 0.0000
vn -1.0000 0.0000 0.0000
vn -1.0000 0.0000 0.0000
vn -1.0000 0.0000 0.0000
vn -1.0000 0.0000 0.0000
vn -1.0000 0.0000 0.0000
vn -1.0000 0.0000 0.0000
vn -1.0000 0.0000 0.0000
vn 0.0100 0.9238 0.3827
vn 0.0100 0.9238 0.3827
vn 0.0100 0.9238 0.3827
vn 0.0100 0.9238 0.3827
vn 0.0100 0.3827 0.9238
vn 0.0100 0.3827 0.9238
vn 0.0100 0.3827 0.9238
vn 0.0100 0.3827 0.9238
vn 0.0100 -0.3827 0.9238
vn 0.0100 -0.3827 0.9238
vn 0.0100 -0.3827 0.9238
vn 0.0100 -0.3827 0.9238
vn 0.0100 -0.9238 0.3827
vn 0.0100 -0.9238 0.3827
vn 0.0100 -0.9238 0.3827
vn 0.0100 -0.9238 0.3827
vn 0.0100 -0.9238 -0.3827
vn 0.0100 -0.9238 -0.3827
vn 0.0100 -0.9238 -0.3827
vn 0.0100 -0.9238 -0.3827
vn 0.0100 -0.3827 -0.9238
vn 0.0100 -0.3827 -0.9238
vn 0.0100 -0.3827 -0.9238
vn 0.0100 -0.3827 -0.9238
vn 0.0100 0.3827 -0.9238
vn 0.0100 0.3827 -0.9238
vn 0.0100 0.3827 -0.9238
vn 0.0100 0.3827 -0.9238
vn 0.0100 0.9238 -0.3827
vn 0.0100 0.9238 -0.3827
vn 0.0100 0.9238 -0.3827
vn 0.0100 0.9238 -0.3827
vn 1.0000 0.0000 0.0000
vn 1.0000 0.0000 0.0000
vn 1.0000 0.0000 0.0000
vn 1.0000 0.0000 0.0000
vn 1.0000 0.0000 0.0000
vn 1.0000 0.0000 0.0000
vn 1.0000 0.0000 0.0000
vn 1.0000 0.0000 0.0000
vn 1.0000 0.0000 0.0000
vn -1.0000 0.0000 0.0000
vn -1.0000 0.0000 0.0000
vn -1.0000 0.0000 0.0000
vn -1.0000 0.0000 0.0000
vn -1.0000 0.0000 0.0000
vn -1.0000 0.0000 0.0000
vn -1.0000 0.0000 0.0000
vn -1.0000 0.0000 0.0000
vn -1.0000 0.0000 0.0000
vn 0.0000 0.9239 0.3827
vn 0.0000 0.9239 0.3827
vn 0.0000 0.9239 0.3827
vn 0.0000 0.9239 0.3827
vn 0.0000 0.3827 0.9239
vn 0.0000 0.3827 0.9239
vn 0.0000 0.3827 0.9239
vn 0.0000 0.3827 0.9239
vn 0.0000 -0.3827 0.9239
vn 0.0000 -0.3827 0.9239
vn 0.0000 -0.3827 0.9239
vn 0.0000 -0.3827 0.9239
vn 0.0000 -0.9239 0.3827
vn 0.0000 -0.9239 0.3827
vn 0.0000 -0.9239 0.3827
vn 0.0000 -0.9239 0.3827
vn 0.0000 -0.9239 -0.3827
vn 0.0000 -0.9239 -0.3827
vn 0.0000 -0.9239 -0.3827
vn 0.0000 -0.9239 -0.3827
vn 0.0000 -0.3827 -0.9239
vn 0.0000 -0.3827 -0.9239
vn 0.0000 -0.3827 -0.9239
vn 0.0000 -0.3827 -0.9239
vn 0.0000 0.3827 -0.9239
vn 0.0000 0.3827 -0.9239
vn 0.0000 0.3827 -0.9239
vn 0.0000 0.3827 -0.9239
vn 0.0000 0.9239 -0.3827
vn 0.0000 0.9239 -0.3827
vn 0.0000 0.9239 -0.3827
vn 0.0000 0.9239 -0.3827
vn 1.0000 0.0000 0.0000
vn 1.0000 0.0000 0.0000
vn 1.0000 0.0000 0.0000
vn 1.0000 0.0000 0.0000
vn 1.0000 0.0000 0.0000
vn 1.0000 0.0000 0.0000
vn 1.0000 0.0000 0.0000
vn 1.0000 0.0000 0.0000
vn 1.0000 0.0000 0.0000
vn -1.0000 0.0000 0.0000
vn -1.0000 0.0000 0.0000
vn -1.0000 0.0000 0.0000
vn -1.0000 0.0000 0.0000
vn -1.0000 0.0000 0.0000
vn -1.0000 0.0000 0.0000
vn -1.0000 0.0000 0.0000
vn -1.0000 0.0000 0.0000
vn -1.0000 0.0000 0.0000
vn 0.0375 0.9232 0.3824
vn 0.0375 0.9232 0.3824
vn 0.0375 0.9232 0.3824
vn 0.0375 0.9232 0.3824
vn 0.0375 0.3824 0.9232
vn 0.0375 0.3824 0.9232
vn 0.0375 0.3824 0.9232
vn 0.0375 0.3824 0.9232
vn 0.0375 -0.3824 0.9232
vn 0.0375 -0.3824 0.9232
vn 0.0375 -0.3824 0.9232
vn 0.0375 -0.3824 0.9232
vn 0.0375 -0.9232 0.3824
vn 0.0375 -0.9232 0.3824
vn 0.0375 -0.9232 0.3824
vn 0.0375 -0.9232 0.3824
vn 0.0375 -0.9232 -0.3824
vn 0.0375 -0.9232 -0.3824
vn 0.0375 -0.9232 -0.3824
vn 0.0375 -0.9232 -0.3824
vn 0.0375 -0.3824 -0.9232
vn 0.0375 -0.3824 -0.9232
vn 0.0375 -0.3824 -0.9232
vn 0.0375 -0.3824 -0.9232
vn 0.0375 0.3824 -0.9232
vn 0.0375 0.3824 -0.9232
vn 0.0375 0.3824 -0.9232
vn 0.0375 0.3824 -0.9232
vn 0.0375 0.9232 -0.3824
vn 0.0375 0.9232 -0.3824
vn 0.0375 0.9232 -0.3824
vn 0.0375 0.9232 -0.3824
vn 1.0000 0.0000 0.0000
vn 1.0000 0.0000 0.0000
vn 1.0000 0.0000 0.0000
vn 1.0000 0.0000 0.0000
vn 1.0000 0.0000 0.0000
vn 1.0000 0.0000 0.0000
vn 1.0000 0.0000 0.0000
vn 1.0000 0.0000 0.0000
vn 1.0000 0.0000 0.0000
vn -1.0000 0.0000 0.0000
vn -1.0000 0.0000 0.0000
vn -1.0000 0.0000 0.0000
vn -1.0000 0.0000 0.0000
vn -1.0000 0.0000 0.0000
vn -1.0000 0.0000 0.0000
vn -1.0000 0.0000 0.0000
vn -1.0000 0.0000 0.0000
vn -1.0000 0.0000 0.0000
vn 0.0000 0.9239 0.3827
vn 0.0000 0.9239 0.3827
vn 0.0000 0.9239 0.3827
vn 0.0000 0.9239 0.3827
vn 0.0000 0.3827 0.9239
vn 0.0000 0.3827 0.9239
vn 0.0000 0.3827 0.9239
vn 0.0000 0.3827 0.9239
vn 0.0000 -0.3827 0.9239
vn 0.0000 -0.3827 0.9239
vn 0.0000 -0.3827 0.9239
vn 0.0000 -0.3827 0.9239
vn 0.0000 -0.9239 0.3827
vn 0.0000 -0.9239 0.3827
vn 0.0000 -0.9239 0.3827
vn 0.0000 -0.9239 0.3827
vn 0.0000 -0.9239 -0.3827
vn 0.0000 -0.9239 -0.3827
vn 0.0000 -0.9239 -0.3827
vn 0.0000 -0.9239 -0.3827
vn 0.0000 -0.3827 -0.9239
vn 0.0000 -0.3827 -0.9239
vn 0.0000 -0.3827 -0.9239
vn 0.0000 -0.3827 -0.9239
vn 0.0000 0.3827 -0.9239
vn 0.0000 0.3827 -0.9239
vn 0.0000 0.3827 -0.9239
vn 0.0000 0.3827 -0.9239
vn 0.0000 0.9239 -0.3827
vn 0.0000 0.9239 -0.3827
vn 0.0000 0.9239 -0.3827
vn 0.0000 0.9239 -0.3827
vn 1.0000 0.0000 0.0000
vn 1.0000 0.0000 0.0000
vn 1.0000 0.0000 0.0000
vn 1.0000 0.0000 0.0000
vn 1.0000 0.0000 0.0000
vn 1.0000 0.0000 0.0000
vn 1.0000 0.0000 0.0000
vn 1.0000 0.0000 0.0000
vn 1.0000 0.0000 0.0000
vn -1.0000 0.0000 0.0000
vn -1.0000 0.0000 0.0000
vn -1.0000 0.0000 0.0000
vn -1.0000 0.0000 0.0000
vn -1.0000 0.0000 0.0000
vn -1.0000 0.0000 0.0000
vn -1.0000 0.0000 0.0000
vn -1.0000 0.0000 0.0000
vn -1.0000 0.0000 0.0000
vn 0.0000 0.9239 0.3827
vn 0.0000 0.9239 0.3827
vn 0.0000 0.9239 0.3827
vn 0.0000 0.9239 0.3827
vn 0.0000 0.3827 0.9239
vn 0.0000 0.3827 0.9239
vn 0.0000 0.3827 0.9239
vn 0.0000 0.3827 0.9239
vn 0.0000 -0.3827 0.9239
vn 0.0000 -0.3827 0.9239
vn 0.0000 -0.3827 0.9239
vn 0.0000 -0.3827 0.9239
vn 0.0000 -0.9239 0.3827
vn 0.0000 -0.9239 0.3827
vn 0.0000 -0.9239 0.3827
vn 0.0000 -0.9239 0.3827
vn 0.0000 -0.9239 -0.3827
vn 0.0000 -0.9239 -0.3827
vn 0.0000 -0.9239 -0.3827
vn 0.0000 -0.9239 -0.3827
vn 0.0000 -0.3827 -0.9239
vn 0.0000 -0.3827 -0.9239
vn 0.0000 -0.3827 -0.9239
vn 0.0000 -0.3827 -0.9239
vn 0.0000 0.3827 -0.9239
vn 0.0000 0.3827 -0.9239
vn 0.0000 0.3827 -0.9239
vn 0.0000 0.3827 -0.9239
vn 0.0000 0.9239 -0.3827
vn 0.0000 0.9239 -0.3827
vn 0.0000 0.9239 -0.3827
vn 0.0000 0.9239 -0.3827
vn 1.0000 0.0000 0.0000
vn 1.0000 0.0000 0.0000
vn 1.0000 0.0000 0.0000
vn 1.0000 0.0000 0.0000
vn 1.0000 0.0000 0.0000
vn 1.0000 0.0000 0.0000
vn 1.0000 0.0000 0.0000
vn 1.0000 0.0000 0.0000
vn 1.0000 0.0000 0.0000
vn 0.0176 0.9237 0.3826
vn 0.0176 0.9237 0.3826
vn 0.0176 0.9237 0.3826
vn 0.0176 0.9237 0.3826
vn 0.0176 0.3826 0.9237
vn 0.0176 0.3826 0.9237
vn 0.0176 0.3826 0.9237
vn 0.0176 0.3826 0.9237
vn 0.0176 -0.3826 0.9237
vn 0.0176 -0.3826 0.9237
vn 0.0176 -0.3826 0.9237
vn 0.0176 -0.3826 0.9237
vn 0.0176 -0.9237 0.3826
vn 0.0176 -0.9237 0.3826
vn 0.0176 -0.9237 0.3826
vn 0.0176 -0.9237 0.3826
vn 0.0176 -0.9237 -0.3826
vn 0.0176 -0.9237 -0.3826
vn 0.0176 -0.9237 -0.3826
vn 0.0176 -0.9237 -0.3826
vn 0.0176 -0.3826 -0.9237
vn 0.0176 -0.3826 -0.9237
vn 0.0176 -0.3826 -0.9237
vn 0.0176 -0.3826 -0.9237
vn 0.0176 0.3826 -0.9237
vn 0.0176 0.3826 -0.9237
vn 0.0176 0.3826 -0.9237
vn 0.0176 0.3826 -0.9237
vn 0.0176 0.9237 -0.3826
vn 0.0176 0.9237 -0.3826
vn 0.0176 0.9237 -0.3826
vn 0.0176 0.9237 -0.3826
vn 1.0000 0.0000 0.0000
vn 1.0000 0.0000 0.0000
vn 1.0000 0.0000 0.0000
vn 1.0000 0.0000 0.0000
vn 1.0000 0.0000 0.0000
vn 1.0000 0.0000 0.0000
vn 1.0000 0.0000 0.0000
vn 1.0000 0.0000 0.0000
vn 1.0000 0.0000 0.0000
vn -1.0000 0.0000 0.0000
vn -1.0000 0.0000 0.0000
vn -1.0000 0.0000 0.0000
vn -1.0000 0.0000 0.0000
vn -1.0000 0.0000 0.0000
vn -1.0000 0.0000 0.0000
vn -1.0000 0.0000 0.0000
vn -1.0000 0.0000 0.0000
vn -1.0000 0.0000 0.0000
vn 0.0100 0.9238 0.3827
vn 0.0100 0.9238 0.3827
vn 0.0100 0.9238 0.3827
vn 0.0100 0.9238 0.3827
vn 0.0100 0.3827 0.9238
vn 0.0100 0.3827 0.9238
vn 0.0100 0.3827 0.9238
vn 0.0100 0.3827 0.9238
vn 0.0100 -0.3827 0.9238
vn 0.0100 -0.3827 0.9238
vn 0.0100 -0.3827 0.9238
vn 0.0100 -0.3827 0.9238
vn 0.0100 -0.9238 0.3827
vn 0.0100 -0.9238 0.3827
vn 0.0100 -0.9238 0.3827
vn 0.0100 -0.9238 0.3827
vn 0.0100 -0.9238 -0.3827
vn 0.0100 -0.9238 -0.3827
vn 0.0100 -0.9238 -0.3827
vn 0.0100 -0.9238 -0.3827
vn 0.0100 -0.3827 -0.9238
vn 0.0100 -0.3827 -0.9238
vn 0.0100 -0.3827 -0.9238
vn 0.0100 -0.3827 -0.9238
vn 0.0100 0.3827 -0.9238
vn 0.0100 0.3827 -0.9238
vn 0.0100 0.3827 -0.9238
vn 0.0100 0.3827 -0.9238
vn 0.0100 0.9238 -0.3827
vn 0.0100 0.9238 -0.3827
vn 0.0100 0.9238 -0.3827
vn 0.0100 0.9238 -0.3827
vn 1.0000 0.0000 0.0000
vn 1.0000 0.0000 0.0000
vn 1.0000 0.0000 0.0000
vn 1.0000 0.0000 0.0000
vn 1.0000 0.0000 0.0000
vn 1.0000 0.0000 0.0000
vn 1.0000 0.0000 0.0000
vn 1.0000 0.0000 0.0000
vn 1.0000 0.0000 0.0000
vn -1.0000 0.0000 0.0000
vn -1.0000 0.0000 0.0000
vn -1.0000 0.0000 0.0000
vn -1.0000 0.0000 0.0000
vn -1.0000 0.0000 0.0000
vn -1.0000 0.0000 0.0000
vn -1.0000 0.0000 0.0000
vn -1.0000 0.0000 0.0000
vn -1.0000 0.0000 0.0000
vn 0.0000 0.9239 0.3827
vn 0.0000 0.9239 0.3827
vn 0.0000 0.9239 0.3827
vn 0.0000 0.9239 0.3827
vn 0.0000 0.3827 0.9239
vn 0.0000 0.3827 0.9239
vn 0.0000 0.3827 0.9239
vn 0.0000 0.3827 0.9239
vn 0.0000 -0.3827 0.9239
vn 0.0000 -0.3827 0.9239
vn 0.0000 -0.3827 0.9239
vn 0.0000 -0.3827 0.9239
vn 0.0000 -0.9239 0.3827
vn 0.0000 -0.9239 0.3827
vn 0.0000 -0.9239 0.3827
vn 0.0000 -0.9239 0.3827
vn 0.0000 -0.9239 -0.3827
vn 0.0000 -0.9239 -0.3827
vn 0.0000 -0.9239 -0.3827
vn 0.0000 -0.9239 -0.3827
vn 0.0000 -0.3827 -0.9239
vn 0.0000 -0.3827 -0.9239
vn 0.0000 -0.3827 -0.9239
vn 0.0000 -0.3827 -0.9239
vn 0.0000 0.3827 -0.9239
vn 0.0000 0.3827 -0.9239
vn 0.0000 0.3827 -0.9239
vn 0.0000 0.3827 -0.9239
vn 0.0000 0.9239 -0.3827
vn 0.0000 0.9239 -0.3827
vn 0.0000 0.9239 -0.3827
vn 0.0000 0.9239 -0.3827
vn 1.0000 0.0000 0.0000
vn 1.0000 0.0000 0.0000
vn 1.0000 0.0000 0.0000
vn 1.0000 0.0000 0.0000
vn 1.0000 0.0000 0.0000
vn 1.0000 0.0000 0.0000
vn 1.0000 0.0000 0.0000
vn 1.0000 0.0000 0.0000
vn 1.0000 0.0000 0.0000
vn -1.0000 0.0000 0.0000
vn -1.0000 0.0000 0.0000
vn -1.0000 0.0000 0.0000
vn -1.0000 0.0000 0.0000
vn -1.0000 0.0000 0.0000
vn -1.0000 0.0000 0.0000
vn -1.0000 0.0000 0.0000
vn -1.0000 0.0000 0.0000
vn -1.0000 0.0000 0.0000
vn 0.0375 0.9232 0.3824
vn 0.0375 0.9232 0.3824
vn 0.0375 0.9232 0.3824
vn 0.0375 0.9232 0.3824
vn 0.0375 0.3824 0.9232
vn 0.0375 0.3824 0.9232
vn 0.0375 0.3824 0.9232
vn 0.0375 0.3824 0.9232
vn 0.0375 -0.3824 0.9232
vn 0.0375 -0.3824 0.9232
vn 0.0375 -0.3824 0.9232
vn 0.0375 -0.3824 0.9232
vn 0.0375 -0.9232 0.3824
vn 0.0375 -0.9232 0.3824
vn 0.0375 -0.9232 0.3824
vn 0.0375 -0.9232 0.3824
vn 0.0375 -0.9232 -0.3824
vn 0.0375 -0.9232 -0.3824
vn 0.0375 -0.9232 -0.3824
vn 0.0375 -0.9232 -0.3824
vn 0.0375 -0.3824 -0.9232
vn 0.0375 -0.3824 -0.9232
vn 0.0375 -0.3824 -0.9232
vn 0.0375 -0.3824 -0.9232
vn 0.0375 0.3824 -0.9232
vn 0.0375 0.3824 -0.9232
vn 0.0375 0.3824 -0.9232
vn 0.0375 0.3824 -0.9232
vn 0.0375 0.9232 -0.3824
vn 0.0375 0.9232 -0.3824
vn 0.0375 0.9232 -0.3824
vn 0.0375 0.9232 -0.3824
vn 1.0000 0.0000 0.0000
vn 1.0000 0.0000 0.0000
vn 1.0000 0.0000 0.0000
vn 1.0000 0.0000 0.0000
vn 1.0000 0.0000 0.0000
vn 1.0000 0.0000 0.0000
vn 1.0000 0.0000 0.0000
vn 1.0000 0.0000 0.0000
vn 1.0000 0.0000 0.0000
vn -1.0000 0.0000 0.0000
vn -1.0000 0.0000 0.0000
vn -1.0000 0.0000 0.0000
vn -1.0000 0.0000 0.0000
vn -1.0000 0.0000 0.0000
vn -1.0000 0.0000 0.0000
vn -1.0000 0.0000 0.0000
vn -1.0000 0.0000 0.0000
vn -1.0000 0.0000 0.0000
vn 0.0000 0.9239 0.3827
vn 0.0000 0.9239 0.3827
vn 0.0000 0.9239 0.3827
vn 0.0000 0.9239 0.3827
vn 0.0000 0.3827 0.9239
vn 0.0000 0.3827 0.9239
vn 0.0000 0.3827 0.9239
vn 0.0000 0.3827 0.9239
vn 0.0000 -0.3827 0.9239
vn 0.0000 -0.3827 0.9239
vn 0.0000 -0.3827 0.9239
vn 0.0000 -0.3827 0.9239
vn 0.0000 -0.9239 0.3827
vn 0.0000 -0.9239 0.3827
vn 0.0000 -0.9239 0.3827
vn 0.0000 -0.9239 0.3827
vn 0.0000 -0.9239 -0.3827
vn 0.0000 -0.9239 -0.3827
vn 0.0000 -0.9239 -0.3827
vn 0.0000 -0.9239 -0.3827
vn 0.0000 -0.3827 -0.9239
vn 0.0000 -0.3827 -0.9239
vn 0.0000 -0.3827 -0.9239
vn 0.0000 -0.3827 -0.9239
vn 0.0000 0.3827 -0.9239
vn 0.0000 0.3827 -0.9239
vn 0.0000 0.3827 -0.9239
vn 0.0000 0.3827 -0.9239
vn 0.0000 0.9239 -0.3827
vn 0.0000 0.9239 -0.3827
vn 0.0000 0.9239 -0.3827
vn 0.0000 0.9239 -0.3827
vn 1.0000 0.0000 0.0000
vn 1.0000 0.0000 0.0000
vn 1.0000 0.0000 0.0000
vn 1.0000 0.0000 0.0000
vn 1.0000 0.0000 0.0000
vn 1.0000 0.0000 0.0000
vn 1.0000 0.0000 0.0000
vn 1.0000 0.0000 0.0000
vn 1.0000 0.0000 0.0000
vn -1.0000 0.0000 0.0000
vn -1.0000 0.0000 0.0000
vn -1.0000 0.0000 0.0000
vn -1.0000 0.0000 0.0000
vn -1.0000 0.0000 0.0000
vn -1.0000 0.0000 0.0000
vn -1.0000 0.0000 0.0000
vn -1.0000 0.0000 0.0000
vn -1.0000 0.0000 0.0000
vn 0.0000 0.9239 0.3827
vn 0.0000 0.9239 0.3827
vn 0.0000 0.9239 0.3827
vn 0.0000 0.9239 0.3827
vn 0.0000 0.3827 0.9239
vn 0.0000 0.3827 0.9239
vn 0.0000 0.3827 0.9239
vn 0.0000 0.3827 0.9239
vn 0.0000 -0.3827 0.9239
vn 0.0000 -0.3827 0.9239
vn 0.0000 -0.3827 0.9239
vn 0.0000 -0.3827 0.9239
vn 0.0000 -0.9239 0.3827
vn 0.0000 -0.9239 0.3827
vn 0.0000 -0.9239 0.3827
vn 0.0000 -0.9239 0.3827
vn 0.0000 -0.9239 -0.3827
vn 0.0000 -0.9239 -0.3827
vn 0.0000 -0.9239 -0.3827
vn 0.0000 -0.9239 -0.3827
vn 0.0000 -0.3827 -0.9239
vn 0.0000 -0.3827 -0.9239
vn 0.0000 -0.3827 -0.9239
vn 0.0000 -0.3827 -0.9239
vn 0.0000 0.3827 -0.9239
vn 0.0000 0.3827 -0.9239
vn 0.0000 0.3827 -0.9239
vn 0.0000 0.3827 -0.9239
vn 0.0000 0.9239 -0.3827
vn 0.0000 0.9239 -0.3827
vn 0.0000 0.9239 -0.3827
vn 0.0000 0.9239 -0.3827
vn 1.0000 0.0000 0.0000
vn 1.0000 0.0000 0.0000
vn 1.0000 0.0000 0.0000
vn 1.0000 0.0000 0.0000
vn 1.0000 0.0000 0.0000
vn 1.0000 0.0000 0.0000
vn 1.0000 0.0000 0.0000
vn 1.0000 0.0000 0.0000
vn 1.0000 0.0000 0.0000
vn 0.0000 0.0000 1.0000
vn 0.0000 0.0000 1.0000
vn 0.0000 0.0000 1.0000
vn 0.0000 0.0000 1.0000
vn 0.0000 0.0000 -1.0000
vn 0.0000 0.0000 -1.0000
vn 0.0000 0.0000 -1.0000
vn 0.0000 0.0000 -1.0000
vn 1.0000 0.0000 0.0000
vn 1.0000 0.0000 0.0000
vn 1.0000 0.0000 0.0000
vn 1.0000 0.0000 0.0000
vn -1.0000 0.0000 0.0000
vn -1.0000 0.0000 0.0000
vn -1.0000 0.0000 0.0000
vn -1.0000 0.0000 0.0000
vn 0.0000 1.0000 0.0000
vn 0.0000 1.0000 0.0000
vn 0.0000 1.0000 0.0000
vn 0.0000 1.0000 0.0000
vn 0.0000 -1.0000 0.0000
vn 0.0000 -1.0000 0.0000
vn 0.0000 -1.0000 0.0000
vn 0.0000 -1.0000 0.0000
vn 0.0000 0.8660 0.5000
vn 0.0000 0.8660 0.5000
vn 0.0000 0.8660 0.5000
vn 0.0000 0.8660 0.5000
vn 0.0000 0.0000 1.0000
vn 0.0000 0.0000 1.0000
vn 0.0000 0.0000 1.0000
vn 0.0000 0.0000 1.0000
vn 0.0000 -0.8660 0.5000
vn 0.0000 -0.8660 0.5000
vn 0.0000 -0.8660 0.5000
vn 0.0000 -0.8660 0.5000
vn 0.0000 -0.8660 -0.5000
vn 0.0000 -0.8660 -0.5000
vn 0.0000 -0.8660 -0.5000
vn 0.0000 -0.8660 -0.5000
vn 0.0000 -0.0000 -1.0000
vn 0.0000 -0.0000 -1.0000
vn 0.0000 -0.0000 -1.0000
vn 0.0000 -0.0000 -1.0000
vn 0.0000 0.8660 -0.5000
vn 0.0000 0.8660 -0.5000
vn 0.0000 0.8660 -0.5000
vn 0.0000 0.8660 -0.5000
vn 1.0000 0.0000 0.0000
vn 1.0000 0.0000 0.0000
vn 1.0000 0.0000 0.0000
vn 1.0000 0.0000 0.0000
vn 1.0000 0.0000 0.0000
vn 1.0000 0.0000 0.0000
vn 1.0000 0.0000 0.0000
vn -1.0000 0.0000 0.0000
vn -1.0000 0.0000 0.0000
vn -1.0000 0.0000 0.0000
vn -1.0000 0.0000 0.0000
vn -1.0000 0.0000 0.0000
vn -1.0000 0.0000 0.0000
vn -1.0000 0.0000 0.0000
usemtl dark
f 651//651 652//652 653//653
f 651//651 653//653 654//654
f 655//655 656//656 657//657
f 655//655 657//657 658//658
f 659//659 660//660 661//661
f 659//659 661//661 662//662
f 663//663 664//664 665//665
f 663//663 665//665 666//666
f 667//667 668//668 669//669
f 667//667 669//669 670//670
f 671//671 672//672 673//673
f 671//671 673//673 674//674
usemtl secondary
f 675//675 676//676 677//677
f 675//675 677//677 678//678
f 679//679 680//680 681//681
f 679//679 681//681 682//682
f 683//683 684//684 685//685
f 683//683 685//685 686//686
f 687//687 688//688 689//689
f 687//687 689//689 690//690
f 691//691 692//692 693//693
f 691//691 693//693 694//694
f 695//695 696//696 697//697
f 695//695 697//697 698//698
usemtl chrome
f 699//699 700//700 701//701
f 699//699 701//701 702//702
f 703//703 704//704 705//705
f 703//703 705//705 706//706
f 707//707 708//708 709//709
f 707//707 709//709 710//710
f 711//711 712//712 713//713
f 711//711 713//713 714//714
f 715//715 716//716 717//717
f 715//715 717//717 718//718
f 719//719 720//720 721//721
f 719//719 721//721 722//722
f 723//723 724//724 725//725
f 723//723 725//725 726//726
f 723//723 726//726 727//727
f 723//723 727//727 728//728
f 723//723 728//728 729//729
f 723//723 729//729 724//724
f 730//730 732//732 731//731
f 730//730 733//733 732//732
f 730//730 734//734 733//733
f 730//730 735//735 734//734
f 730//730 736//736 735//735
f 730//730 731//731 736//736
f 737//737 738//738 739//739
f 737//737 739//739 740//740
f 741//741 742//742 743//743
f 741//741 743//743 744//744
f 745//745 746//746 747//747
f 745//745 747//747 748//748
f 749//749 750//750 751//751
f 749//749 751//751 752//752
f 753//753 754//754 755//755
f 753//753 755//755 756//756
f 757//757 758//758 759//759
f 757//757 759//759 760//760
f 761//761 762//762 763//763
f 761//761 763//763 764//764
f 761//761 764//764 765//765
f 761//761 765//765 766//766
f 761//761 766//766 767//767
f 761//761 767//767 762//762
f 768//768 770//770 769//769
f 768//768 771//771 770//770
f 768//768 772//772 771//771
f 768//768 773//773 772//772
f 768//768 774//774 773//773
f 768//768 769//769 774//774
usemtl dark
f 775//775 776//776 777//777
f 775//775 777//777 778//778
f 779//779 780//780 781//781
f 779//779 781//781 782//782
f 783//783 784//784 785//785
f 783//783 785//785 786//786
f 787//787 788//788 789//789
f 787//787 789//789 790//790
f 791//791 792//792 793//793
f 791//791 793//793 794//794
f 795//795 796//796 797//797
f 795//795 797//797 798//798
f 799//799 800//800 801//801
f 799//799 801//801 802//802
f 803//803 804//804 805//805
f 803//803 805//805 806//806
f 807//807 808//808 809//809
f 807//807 809//809 810//810
f 807//807 810//810 811//811
f 807//807 811//811 812//812
f 807//807 812//812 813//813
f 807//807 813//813 814//814
f 807//807 814//814 815//815
f 807//807 815//815 808//808
f 816//816 818//818 817//817
f 816//816 819//819 818//818
f 816//816 820//820 819//819
f 816//816 821//821 820//820
f 816//816 822//822 821//821
f 816//816 823//823 822//822
f 816//816 824//824 823//823
f 816//816 817//817 824//824
f 825//825 826//826 827//827
f 825//825 827//827 828//828
f 829//829 830//830 831//831
f 829//829 831//831 832//832
f 833//833 834//834 835//835
f 833//833 835//835 836//836
f 837//837 838//838 839//839
f 837//837 839//839 840//840
f 841//841 842//842 843//843
f 841//841 843//843 844//844
f 845//845 846//846 847//847
f 845//845 847//847 848//848
f 849//849 850//850 851//851
f 849//849 851//851 852//852
f 853//853 854//854 855//855
f 853//853 855//855 856//856
f 857//857 858//858 859//859
f 857//857 859//859 860//860
f 857//857 860//860 861//861
f 857//857 861//861 862//862
f 857//857 862//862 863//863
f 857//857 863//863 864//864
f 857//857 864//864 865//865
f 857//857 865//865 858//858
f 866//866 868//868 867//867
f 866//866 869//869 868//868
f 866//866 870//870 869//869
f 866//866 871//871 870//870
f 866//866 872//872 871//871
f 866//866 873//873 872//872
f 866//866 874//874 873//873
f 866//866 867//867 874//874
usemtl bronze
f 875//875 876//876 877//877
f 875//875 877//877 878//878
f 879//879 880//880 881//881
f 879//879 881//881 882//882
f 883//883 884//884 885//885
f 883//883 885//885 886//886
f 887//887 888//888 889//889
f 887//887 889//889 890//890
f 891//891 892//892 893//893
f 891//891 893//893 894//894
f 895//895 896//896 897//897
f 895//895 897//897 898//898
f 899//899 900//900 901//901
f 899//899 901//901 902//902
f 903//903 904//904 905//905
f 903//903 905//905 906//906
f 907//907 908//908 909//909
f 907//907 909//909 910//910
f 907//907 910//910 911//911
f 907//907 911//911 912//912
f 907//907 912//912 913//913
f 907//907 913//913 914//914
f 907//907 914//914 915//915
f 907//907 915//915 908//908
f 916//916 918//918 917//917
f 916//916 919//919 918//918
f 916//916 920//920 919//919
f 916//916 921//921 920//920
f 916//916 922//922 921//921
f 916//916 923//923 922//922
f 916//916 924//924 923//923
f 916//916 917//917 924//924
usemtl dark
f 925//925 926//926 927//927
f 925//925 927//927 928//928
f 929//929 930//930 931//931
f 929//929 931//931 932//932
f 933//933 934//934 935//935
f 933//933 935//935 936//936
f 937//937 938//938 939//939
f 937//937 939//939 940//940
f 941//941 942//942 943//943
f 941//941 943//943 944//944
f 945//945 946//946 947//947
f 945//945 947//947 948//948
f 949//949 950//950 951//951
f 949//949 951//951 952//952
f 953//953 954//954 955//955
f 953//953 955//955 956//956
f 957//957 958//958 959//959
f 957//957 959//959 960//960
f 957//957 960//960 961//961
f 957//957 961//961 962//962
f 957//957 962//962 963//963
f 957//957 963//963 964//964
f 957//957 964//964 965//965
f 957//957 965//965 958//958
f 966//966 968//968 967//967
f 966//966 969//969 968//968
f 966//966 970//970 969//969
f 966//966 971//971 970//970
f 966//966 972//972 971//971
f 966//966 973//973 972//972
f 966//966 974//974 973//973
f 966//966 967//967 974//974
usemtl bronze
f 975//975 976//976 977//977
f 975//975 977//977 978//978
f 979//979 980//980 981//981
f 979//979 981//981 982//982
f 983//983 984//984 985//985
f 983//983 985//985 986//986
f 987//987 988//988 989//989
f 987//987 989//989 990//990
f 991//991 992//992 993//993
f 991//991 993//993 994//994
f 995//995 996//996 997//997
f 995//995 997//997 998//998
f 999//999 1000//1000 1001//1001
f 999//999 1001//1001 1002//1002
f 1003//1003 1004//1004 1005//1005
f 1003//1003 1005//1005 1006//1006
f 1007//1007 1008//1008 1009//1009
f 1007//1007 1009//1009 1010//1010
f 1007//1007 1010//1010 1011//1011
f 1007//1007 1011//1011 1012//1012
f 1007//1007 1012//1012 1013//1013
f 1007//1007 1013//1013 1014//1014
f 1007//1007 1014//1014 1015//1015
f 1007//1007 1015//1015 1008//1008
f 1016//1016 1018//1018 1017//1017
f 1016//1016 1019//1019 1018//1018
f 1016//1016 1020//1020 1019//1019
f 1016//1016 1021//1021 1020//1020
f 1016//1016 1022//1022 1021//1021
f 1016//1016 1023//1023 1022//1022
f 1016//1016 1024//1024 1023//1023
f 1016//1016 1017//1017 1024//1024
usemtl dark
f 1025//1025 1026//1026 1027//1027
f 1025//1025 1027//1027 1028//1028
f 1029//1029 1030//1030 1031//1031
f 1029//1029 1031//1031 1032//1032
f 1033//1033 1034//1034 1035//1035
f 1033//1033 1035//1035 1036//1036
f 1037//1037 1038//1038 1039//1039
f 1037//1037 1039//1039 1040//1040
f 1041//1041 1042//1042 1043//1043
f 1041//1041 1043//1043 1044//1044
f 1045//1045 1046//1046 1047//1047
f 1045//1045 1047//1047 1048//1048
f 1049//1049 1050//1050 1051//1051
f 1049//1049 1051//1051 1052//1052
f 1053//1053 1054//1054 1055//1055
f 1053//1053 1055//1055 1056//1056
f 1057//1057 1058//1058 1059//1059
f 1057//1057 1059//1059 1060//1060
f 1057//1057 1060//1060 1061//1061
f 1057//1057 1061//1061 1062//1062
f 1057//1057 1062//1062 1063//1063
f 1057//1057 1063//1063 1064//1064
f 1057//1057 1064//1064 1065//1065
f 1057//1057 1065//1065 1058//1058
f 1066//1066 1067//1067 1068//1068
f 1066//1066 1068//1068 1069//1069
f 1070//1070 1071//1071 1072//1072
f 1070//1070 1072//1072 1073//1073
f 1074//1074 1075//1075 1076//1076
f 1074//1074 1076//1076 1077//1077
f 1078//1078 1079//1079 1080//1080
f 1078//1078 1080//1080 1081//1081
f 1082//1082 1083//1083 1084//1084
f 1082//1082 1084//1084 1085//1085
f 1086//1086 1087//1087 1088//1088
f 1086//1086 1088//1088 1089//1089
f 1090//1090 1091//1091 1092//1092
f 1090//1090 1092//1092 1093//1093
f 1094//1094 1095//1095 1096//1096
f 1094//1094 1096//1096 1097//1097
f 1098//1098 1099//1099 1100//1100
f 1098//1098 1100//1100 1101//1101
f 1098//1098 1101//1101 1102//1102
f 1098//1098 1102//1102 1103//1103
f 1098//1098 1103//1103 1104//1104
f 1098//1098 1104//1104 1105//1105
f 1098//1098 1105//1105 1106//1106
f 1098//1098 1106//1106 1099//1099
f 1107//1107 1109//1109 1108//1108
f 1107//1107 1110//1110 1109//1109
f 1107//1107 1111//1111 1110//1110
f 1107//1107 1112//1112 1111//1111
f 1107//1107 1113//1113 1112//1112
f 1107//1107 1114//1114 1113//1113
f 1107//1107 1115//1115 1114//1114
f 1107//1107 1108//1108 1115//1115
f 1116//1116 1117//1117 1118//1118
f 1116//1116 1118//1118 1119//1119
f 1120//1120 1121//1121 1122//1122
f 1120//1120 1122//1122 1123//1123
f 1124//1124 1125//1125 1126//1126
f 1124//1124 1126//1126 1127//1127
f 1128//1128 1129//1129 1130//1130
f 1128//1128 1130//1130 1131//1131
f 1132//1132 1133//1133 1134//1134
f 1132//1132 1134//1134 1135//1135
f 1136//1136 1137//1137 1138//1138
f 1136//1136 1138//1138 1139//1139
f 1140//1140 1141//1141 1142//1142
f 1140//1140 1142//1142 1143//1143
f 1144//1144 1145//1145 1146//1146
f 1144//1144 1146//1146 1147//1147
f 1148//1148 1149//1149 1150//1150
f 1148//1148 1150//1150 1151//1151
f 1148//1148 1151//1151 1152//1152
f 1148//1148 1152//1152 1153//1153
f 1148//1148 1153//1153 1154//1154
f 1148//1148 1154//1154 1155//1155
f 1148//1148 1155//1155 1156//1156
f 1148//1148 1156//1156 1149//1149
f 1157//1157 1159//1159 1158//1158
f 1157//1157 1160//1160 1159//1159
f 1157//1157 1161//1161 1160//1160
f 1157//1157 1162//1162 1161//1161
f 1157//1157 1163//1163 1162//1162
f 1157//1157 1164//1164 1163//1163
f 1157//1157 1165//1165 1164//1164
f 1157//1157 1158//1158 1165//1165
usemtl bronze
f 1166//1166 1167//1167 1168//1168
f 1166//1166 1168//1168 1169//1169
f 1170//1170 1171//1171 1172//1172
f 1170//1170 1172//1172 1173//1173
f 1174//1174 1175//1175 1176//1176
f 1174//1174 1176//1176 1177//1177
f 1178//1178 1179//1179 1180//1180
f 1178//1178 1180//1180 1181//1181
f 1182//1182 1183//1183 1184//1184
f 1182//1182 1184//1184 1185//1185
f 1186//1186 1187//1187 1188//1188
f 1186//1186 1188//1188 1189//1189
f 1190//1190 1191//1191 1192//1192
f 1190//1190 1192//1192 1193//1193
f 1194//1194 1195//1195 1196//1196
f 1194//1194 1196//1196 1197//1197
f 1198//1198 1199//1199 1200//1200
f 1198//1198 1200//1200 1201//1201
f 1198//1198 1201//1201 1202//1202
f 1198//1198 1202//1202 1203//1203
f 1198//1198 1203//1203 1204//1204
f 1198//1198 1204//1204 1205//1205
f 1198//1198 1205//1205 1206//1206
f 1198//1198 1206//1206 1199//1199
f 1207//1207 1209//1209 1208//1208
f 1207//1207 1210//1210 1209//1209
f 1207//1207 1211//1211 1210//1210
f 1207//1207 1212//1212 1211//1211
f 1207//1207 1213//1213 1212//1212
f 1207//1207 1214//1214 1213//1213
f 1207//1207 1215//1215 1214//1214
f 1207//1207 1208//1208 1215//1215
usemtl dark
f 1216//1216 1217//1217 1218//1218
f 1216//1216 1218//1218 1219//1219
f 1220//1220 1221//1221 1222//1222
f 1220//1220 1222//1222 1223//1223
f 1224//1224 1225//1225 1226//1226
f 1224//1224 1226//1226 1227//1227
f 1228//1228 1229//1229 1230//1230
f 1228//1228 1230//1230 1231//1231
f 1232//1232 1233//1233 1234//1234
f 1232//1232 1234//1234 1235//1235
f 1236//1236 1237//1237 1238//1238
f 1236//1236 1238//1238 1239//1239
f 1240//1240 1241//1241 1242//1242
f 1240//1240 1242//1242 1243//1243
f 1244//1244 1245//1245 1246//1246
f 1244//1244 1246//1246 1247//1247
f 1248//1248 1249//1249 1250//1250
f 1248//1248 1250//1250 1251//1251
f 1248//1248 1251//1251 1252//1252
f 1248//1248 1252//1252 1253//1253
f 1248//1248 1253//1253 1254//1254
f 1248//1248 1254//1254 1255//1255
f 1248//1248 1255//1255 1256//1256
f 1248//1248 1256//1256 1249//1249
f 1257//1257 1259//1259 1258//1258
f 1257//1257 1260//1260 1259//1259
f 1257//1257 1261//1261 1260//1260
f 1257//1257 1262//1262 1261//1261
f 1257//1257 1263//1263 1262//1262
f 1257//1257 1264//1264 1263//1263
f 1257//1257 1265//1265 1264//1264
f 1257//1257 1258//1258 1265//1265
usemtl bronze
f 1266//1266 1267//1267 1268//1268
f 1266//1266 1268//1268 1269//1269
f 1270//1270 1271//1271 1272//1272
f 1270//1270 1272//1272 1273//1273
f 1274//1274 1275//1275 1276//1276
f 1274//1274 1276//1276 1277//1277
f 1278//1278 1279//1279 1280//1280
f 1278//1278 1280//1280 1281//1281
f 1282//1282 1283//1283 1284//1284
f 1282//1282 1284//1284 1285//1285
f 1286//1286 1287//1287 1288//1288
f 1286//1286 1288//1288 1289//1289
f 1290//1290 1291//1291 1292//1292
f 1290//1290 1292//1292 1293//1293
f 1294//1294 1295//1295 1296//1296
f 1294//1294 1296//1296 1297//1297
f 1298//1298 1299//1299 1300//1300
f 1298//1298 1300//1300 1301//1301
f 1298//1298 1301//1301 1302//1302
f 1298//1298 1302//1302 1303//1303
f 1298//1298 1303//1303 1304//1304
f 1298//1298 1304//1304 1305//1305
f 1298//1298 1305//1305 1306//1306
f 1298//1298 1306//1306 1299//1299
f 1307//1307 1309//1309 1308//1308
f 1307//1307 1310//1310 1309//1309
f 1307//1307 1311//1311 1310//1310
f 1307//1307 1312//1312 1311//1311
f 1307//1307 1313//1313 1312//1312
f 1307//1307 1314//1314 1313//1313
f 1307//1307 1315//1315 1314//1314
f 1307//1307 1308//1308 1315//1315
usemtl dark
f 1316//1316 1317//1317 1318//1318
f 1316//1316 1318//1318 1319//1319
f 1320//1320 1321//1321 1322//1322
f 1320//1320 1322//1322 1323//1323
f 1324//1324 1325//1325 1326//1326
f 1324//1324 1326//1326 1327//1327
f 1328//1328 1329//1329 1330//1330
f 1328//1328 1330//1330 1331//1331
f 1332//1332 1333//1333 1334//1334
f 1332//1332 1334//1334 1335//1335
f 1336//1336 1337//1337 1338//1338
f 1336//1336 1338//1338 1339//1339
f 1340//1340 1341//1341 1342//1342
f 1340//1340 1342//1342 1343//1343
f 1344//1344 1345//1345 1346//1346
f 1344//1344 1346//1346 1347//1347
f 1348//1348 1349//1349 1350//1350
f 1348//1348 1350//1350 1351//1351
f 1348//1348 1351//1351 1352//1352
f 1348//1348 1352//1352 1353//1353
f 1348//1348 1353//1353 1354//1354
f 1348//1348 1354//1354 1355//1355
f 1348//1348 1355//1355 1356//1356
f 1348//1348 1356//1356 1349//1349
f 1357//1357 1358//1358 1359//1359
f 1357//1357 1359//1359 1360//1360
f 1361//1361 1362//1362 1363//1363
f 1361//1361 1363//1363 1364//1364
f 1365//1365 1366//1366 1367//1367
f 1365//1365 1367//1367 1368//1368
f 1369//1369 1370//1370 1371//1371
f 1369//1369 1371//1371 1372//1372
f 1373//1373 1374//1374 1375//1375
f 1373//1373 1375//1375 1376//1376
f 1377//1377 1378//1378 1379//1379
f 1377//1377 1379//1379 1380//1380
usemtl accent
f 1381//1381 1382//1382 1383//1383
f 1381//1381 1383//1383 1384//1384
f 1385//1385 1386//1386 1387//1387
f 1385//1385 1387//1387 1388//1388
f 1389//1389 1390//1390 1391//1391
f 1389//1389 1391//1391 1392//1392
f 1393//1393 1394//1394 1395//1395
f 1393//1393 1395//1395 1396//1396
f 1397//1397 1398//1398 1399//1399
f 1397//1397 1399//1399 1400//1400
f 1401//1401 1402//1402 1403//1403
f 1401//1401 1403//1403 1404//1404
f 1405//1405 1406//1406 1407//1407
f 1405//1405 1407//1407 1408//1408
f 1405//1405 1408//1408 1409//1409
f 1405//1405 1409//1409 1410//1410
f 1405//1405 1410//1410 1411//1411
f 1405//1405 1411//1411 1406//1406
f 1412//1412 1414//1414 1413//1413
f 1412//1412 1415//1415 1414//1414
f 1412//1412 1416//1416 1415//1415
f 1412//1412 1417//1417 1416//1416
f 1412//1412 1418//1418 1417//1417
f 1412//1412 1413//1413 1418//1418
