<svg xmlns="http://www.w3.org/2000/svg" viewBox="0 0 32 32" width="32" height="32" role="img" aria-label="Dynamica Command">
  <rect width="32" height="32" fill="#070b12"/>
  <rect x="1.4" y="1.4" width="29.2" height="29.2" rx="5.8" fill="none" stroke="#3a4d5e" stroke-width="1.4"/>
  <rect x="3.35" y="3.35" width="25.3" height="25.3" rx="4.1" fill="none" stroke="#5ce1e6" stroke-width="1"/>
  <path fill="none" stroke="#e8f2f6" stroke-width="1.7" stroke-linecap="square" d="M8.1 6.7H6.2V8.6M23.9 6.7h1.9V8.6M25.8 23.4v1.9H23.9M8.1 25.3H6.2V23.4"/>
  <polygon points="16,16.6 26.4,21.6 16,26.6 5.6,21.6" fill="#243040"/>
  <polygon points="16,8.2 23.1,12.2 16,16.2 8.9,12.2" fill="#5ce1e6"/>
  <polygon points="8.9,12.2 16,16.2 16,21 8.9,17" fill="#1a6d76"/>
  <polygon points="16,16.2 23.1,12.2 23.1,17 16,21" fill="#2f8a94"/>
  <polygon points="10.7,13.2 13.6,14.8 13.6,16.1 10.7,14.5" fill="#5ce1e6"/>
  <polyline points="8.9,12.2 16,8.2 23.1,12.2" fill="none" stroke="#e8f2f6" stroke-width="0.65" opacity="0.45"/>
  <rect x="14.9" y="3.6" width="2.2" height="5.4" fill="#5ce1e6"/>
  <polygon points="16,2.6 18.1,4 16,5.3 13.9,4" fill="#e8f2f6"/>
</svg>
